Newsreader-TextItalic.ufo
<glyph name="parenleft" format="2">
  <advance width="526"/>
  <unicode hex="0028"/>
  <outline>
    <contour>
      <point x="202.0" y="550.0"/>
      <point x="313.0" y="901.0"/>
      <point x="760.0" y="1385.0" type="curve"/>
      <point x="726.0" y="1419.0" type="line"/>
      <point x="185.0" y="901.0"/>
      <point x="88.0" y="610.0"/>
      <point x="88.0" y="269.0" type="curve" smooth="yes"/>
      <point x="88.0" y="114.0"/>
      <point x="123.0" y="-59.0"/>
      <point x="208.0" y="-275.0" type="curve"/>
      <point x="256.0" y="-258.0" type="line"/>
      <point x="218.0" y="-121.0"/>
      <point x="202.0" y="3.0"/>
      <point x="202.0" y="118.0" type="curve" smooth="yes"/>
    </contour>
  </outline>
</glyph>
<glyph name="parenright" format="2">
  <advance width="526"/>
  <unicode hex="0029"/>
  <outline>
    <contour>
      <point x="412.0" y="594.0"/>
      <point x="301.0" y="243.0"/>
      <point x="-146.0" y="-241.0" type="curve"/>
      <point x="-112.0" y="-275.0" type="line"/>
      <point x="429.0" y="243.0"/>
      <point x="526.0" y="534.0"/>
      <point x="526.0" y="875.0" type="curve" smooth="yes"/>
      <point x="526.0" y="1030.0"/>
      <point x="491.0" y="1203.0"/>
      <point x="406.0" y="1419.0" type="curve"/>
      <point x="358.0" y="1402.0" type="line"/>
      <point x="396.0" y="1265.0"/>
      <point x="412.0" y="1141.0"/>
      <point x="412.0" y="1026.0" type="curve" smooth="yes"/>
    </contour>
  </outline>
</glyph>
<glyph name="comma" format="2">
  <advance width="448"/>
  <unicode hex="002C"/>
  <outline>
    <contour>
      <point x="-136.0" y="-299.0" type="curve"/>
      <point x="-108.0" y="-351.0" type="line"/>
      <point x="187.0" y="-172.0"/>
      <point x="266.0" y="-34.0"/>
      <point x="266.0" y="105.0" type="curve" smooth="yes"/>
      <point x="266.0" y="181.0"/>
      <point x="219.0" y="223.0"/>
      <point x="158.0" y="223.0" type="curve" smooth="yes"/>
      <point x="76.0" y="223.0"/>
      <point x="24.0" y="170.0"/>
      <point x="24.0" y="96.0" type="curve" smooth="yes"/>
      <point x="24.0" y="61.0"/>
      <point x="111.0" y="40.0"/>
      <point x="111.0" y="-31.0" type="curve" smooth="yes"/>
      <point x="111.0" y="-99.0"/>
      <point x="57.0" y="-187.0"/>
    </contour>
  </outline>
</glyph>
<glyph name="one" format="2">
  <advance width="1100"/>
  <unicode hex="0031"/>
  <outline>
    <contour>
      <point x="470.0" y="93.0" type="line"/>
      <point x="174.0" y="38.0" type="line"/>
      <point x="163.0" y="0.0" type="line"/>
      <point x="851.0" y="0.0" type="line"/>
      <point x="863.0" y="38.0" type="line"/>
      <point x="613.0" y="90.0" type="line"/>
      <point x="1002.0" y="1360.0" type="line"/>
      <point x="977.0" y="1360.0" type="line"/>
      <point x="360.0" y="1090.0" type="line"/>
      <point x="372.0" y="1051.0" type="line"/>
      <point x="854.0" y="1179.0" type="line"/>
      <point x="824.0" y="1249.0" type="line"/>
    </contour>
  </outline>
</glyph>
<glyph name="greater" format="2">
  <advance width="1000"/>
  <unicode hex="003E"/>
  <guideline x="-81.0" y="-20" angle="10.24657577140609" identifier="kKsrkK8sTC"/>
  <outline>
    <contour>
      <point x="871.0" y="454.0" type="line"/>
      <point x="-49.0" y="85.0" type="line"/>
      <point x="-81.0" y="-20.0" type="line"/>
      <point x="947.0" y="399.0" type="line"/>
      <point x="969.0" y="473.0" type="line"/>
      <point x="197.0" y="892.0" type="line"/>
      <point x="171.0" y="805.0" type="line"/>
      <point x="865.0" y="436.0" type="line"/>
    </contour>
  </outline>
</glyph>
<glyph name="question" format="2">
  <advance width="844"/>
  <unicode hex="003F"/>
  <outline>
    <contour>
      <point x="293.0" y="224.0" type="curve" smooth="yes"/>
      <point x="212.0" y="224.0"/>
      <point x="154.0" y="160.0"/>
      <point x="154.0" y="86.0" type="curve" smooth="yes"/>
      <point x="154.0" y="30.0"/>
      <point x="197.0" y="-14.0"/>
      <point x="261.0" y="-14.0" type="curve" smooth="yes"/>
      <point x="342.0" y="-14.0"/>
      <point x="400.0" y="50.0"/>
      <point x="400.0" y="124.0" type="curve" smooth="yes"/>
      <point x="400.0" y="180.0"/>
      <point x="357.0" y="224.0"/>
    </contour>
    <contour>
      <point x="527.0" y="1360.0" type="curve" smooth="yes"/>
      <point x="358.0" y="1360.0"/>
      <point x="310.0" y="1312.0"/>
      <point x="310.0" y="1250.0" type="curve" smooth="yes"/>
      <point x="310.0" y="1210.0"/>
      <point x="337.0" y="1182.0"/>
      <point x="382.0" y="1182.0" type="curve" smooth="yes"/>
      <point x="455.0" y="1182.0"/>
      <point x="481.0" y="1256.0"/>
      <point x="626.0" y="1256.0" type="curve" smooth="yes"/>
      <point x="738.0" y="1256.0"/>
      <point x="813.0" y="1146.0"/>
      <point x="813.0" y="1017.0" type="curve" smooth="yes"/>
      <point x="813.0" y="822.0"/>
      <point x="689.0" y="738.0"/>
      <point x="376.0" y="754.0" type="curve"/>
      <point x="335.0" y="396.0" type="line"/>
      <point x="376.0" y="396.0" type="line"/>
      <point x="481.0" y="739.0" type="line"/>
      <point x="387.0" y="626.0" type="line"/>
      <point x="769.0" y="611.0"/>
      <point x="893.0" y="756.0"/>
      <point x="893.0" y="983.0" type="curve" smooth="yes"/>
      <point x="893.0" y="1195.0"/>
      <point x="729.0" y="1360.0"/>
    </contour>
  </outline>
</glyph>
<glyph name="at" format="2">
  <advance width="1798"/>
  <unicode hex="0040"/>
  <outline>
    <contour>
      <point x="1265.0" y="264.0" type="curve" smooth="yes"/>
      <point x="1218.0" y="264.0"/>
      <point x="1189.0" y="284.0"/>
      <point x="1189.0" y="348.0" type="curve" smooth="yes"/>
      <point x="1189.0" y="393.0"/>
      <point x="1203.0" y="459.0"/>
      <point x="1234.0" y="554.0" type="curve" smooth="yes"/>
      <point x="1378.0" y="999.0" type="line"/>
      <point x="1231.0" y="999.0" type="line"/>
      <point x="1206.0" y="921.0" type="line"/>
      <point x="1123.0" y="663.0" type="line" smooth="yes"/>
      <point x="1058.0" y="461.0"/>
      <point x="891.0" y="308.0"/>
      <point x="805.0" y="308.0" type="curve" smooth="yes"/>
      <point x="759.0" y="308.0"/>
      <point x="728.0" y="337.0"/>
      <point x="728.0" y="390.0" type="curve" smooth="yes"/>
      <point x="728.0" y="586.0"/>
      <point x="916.0" y="936.0"/>
      <point x="1110.0" y="936.0" type="curve" smooth="yes"/>
      <point x="1156.0" y="936.0"/>
      <point x="1183.0" y="907.0"/>
      <point x="1194.0" y="877.0" type="curve"/>
      <point x="1233.0" y="928.0" type="line"/>
      <point x="1192.0" y="972.0"/>
      <point x="1152.0" y="1002.0"/>
      <point x="1082.0" y="1002.0" type="curve" smooth="yes"/>
      <point x="784.0" y="1002.0"/>
      <point x="560.0" y="604.0"/>
      <point x="560.0" y="378.0" type="curve" smooth="yes"/>
      <point x="560.0" y="249.0"/>
      <point x="631.0" y="198.0"/>
      <point x="735.0" y="198.0" type="curve" smooth="yes"/>
      <point x="831.0" y="198.0"/>
      <point x="935.0" y="284.0"/>
      <point x="1119.0" y="552.0" type="curve"/>
      <point x="1092.0" y="552.0" type="line"/>
      <point x="1075.0" y="490.0" type="line" smooth="yes"/>
      <point x="1059.0" y="432.0"/>
      <point x="1049.0" y="383.0"/>
      <point x="1049.0" y="343.0" type="curve" smooth="yes"/>
      <point x="1049.0" y="245.0"/>
      <point x="1105.0" y="198.0"/>
      <point x="1254.0" y="198.0" type="curve" smooth="yes"/>
      <point x="1520.0" y="198.0"/>
      <point x="1814.0" y="489.0"/>
      <point x="1814.0" y="867.0" type="curve" smooth="yes"/>
      <point x="1814.0" y="1174.0"/>
      <point x="1591.0" y="1418.0"/>
      <point x="1154.0" y="1418.0" type="curve" smooth="yes"/>
      <point x="510.0" y="1418.0"/>
      <point x="108.0" y="873.0"/>
      <point x="108.0" y="382.0" type="curve" smooth="yes"/>
      <point x="108.0" y="-14.0"/>
      <point x="399.0" y="-256.0"/>
      <point x="814.0" y="-256.0" type="curve" smooth="yes"/>
      <point x="1096.0" y="-256.0"/>
      <point x="1288.0" y="-177.0"/>
      <point x="1475.0" y="-65.0" type="curve"/>
      <point x="1444.0" y="-10.0" type="line"/>
      <point x="1254.0" y="-129.0"/>
      <point x="1048.0" y="-178.0"/>
      <point x="856.0" y="-178.0" type="curve" smooth="yes"/>
      <point x="470.0" y="-178.0"/>
      <point x="255.0" y="57.0"/>
      <point x="255.0" y="393.0" type="curve" smooth="yes"/>
      <point x="255.0" y="860.0"/>
      <point x="582.0" y="1344.0"/>
      <point x="1139.0" y="1344.0" type="curve" smooth="yes"/>
      <point x="1554.0" y="1344.0"/>
      <point x="1682.0" y="1091.0"/>
      <point x="1682.0" y="842.0" type="curve" smooth="yes"/>
      <point x="1682.0" y="504.0"/>
      <point x="1473.0" y="264.0"/>
    </contour>
  </outline>
</glyph>
<glyph name="A" format="2">
  <advance width="1311"/>
  <unicode hex="0041"/>
  <guideline x="-205.0" y="38" angle="180.0" identifier="2yAh3gSr58"/>
  <guideline x="-289.0" y="83" angle="180.0" identifier="OZldqyqVHZ"/>
  <guideline x="934.0" y="83" angle="181.58731618455573" identifier="xSl2WuImEk"/>
  <anchor x="922.0" y="1340.0" name="UCtop"/>
  <anchor x="560.0" y="0" name="bottom"/>
  <anchor x="939.0" y="0" name="right"/>
  <outline>
    <contour>
      <point x="367.0" y="505.0" type="line"/>
      <point x="995.0" y="505.0" type="line"/>
      <point x="1023.0" y="587.0" type="line"/>
      <point x="395.0" y="587.0" type="line"/>
    </contour>
    <contour>
      <point x="1089.0" y="85.0" type="line"/>
      <point x="958.0" y="1360.0" type="line"/>
      <point x="913.0" y="1360.0" type="line"/>
      <point x="42.0" y="83.0" type="line"/>
      <point x="-122.0" y="38.0" type="line"/>
      <point x="-133.0" y="0.0" type="line"/>
      <point x="275.0" y="0.0" type="line"/>
      <point x="286.0" y="38.0" type="line"/>
      <point x="149.0" y="83.0" type="line"/>
      <point x="894.0" y="1195.0" type="line"/>
      <point x="831.0" y="1195.0" type="line"/>
      <point x="937.0" y="83.0" type="line"/>
      <point x="755.0" y="38.0" type="line"/>
      <point x="744.0" y="0.0" type="line"/>
      <point x="1201.0" y="0.0" type="line"/>
      <point x="1212.0" y="38.0" type="line"/>
    </contour>
  </outline>
</glyph>
<glyph name="T" format="2">
  <advance width="1226"/>
  <unicode hex="0054"/>
  <anchor x="893.0" y="1340.0" name="UCtop"/>
  <anchor x="484.0" y="0" name="bottom"/>
  <outline>
    <contour>
      <point x="1351.0" y="1246.0" type="line"/>
      <point x="1272.0" y="1265.0" type="line"/>
      <point x="1309.0" y="978.0" type="line"/>
      <point x="1346.0" y="978.0" type="line"/>
      <point x="1446.0" y="1408.0" type="line"/>
      <point x="1429.0" y="1408.0" type="line"/>
      <point x="1273.0" y="1324.0" type="line"/>
      <point x="1358.0" y="1340.0" type="line"/>
      <point x="419.0" y="1340.0" type="line"/>
      <point x="485.0" y="1324.0" type="line"/>
      <point x="388.0" y="1408.0" type="line"/>
      <point x="371.0" y="1408.0" type="line"/>
      <point x="221.0" y="998.0" type="line"/>
      <point x="258.0" y="979.0" type="line"/>
      <point x="479.0" y="1267.0" type="line"/>
      <point x="368.0" y="1246.0" type="line"/>
    </contour>
    <contour>
      <point x="796.0" y="1279.0" type="line"/>
      <point x="434.0" y="86.0" type="line"/>
      <point x="272.0" y="38.0" type="line"/>
      <point x="260.0" y="0.0" type="line"/>
      <point x="712.0" y="0.0" type="line"/>
      <point x="724.0" y="38.0" type="line"/>
      <point x="585.0" y="83.0" type="line"/>
      <point x="948.0" y="1279.0" type="line"/>
    </contour>
  </outline>
</glyph>
<glyph name="bracketleft" format="2">
  <advance width="614"/>
  <unicode hex="005B"/>
  <outline>
    <contour>
      <point x="-20.0" y="-258.0" type="line"/>
      <point x="377.0" y="-258.0" type="line"/>
      <point x="398.0" y="-188.0" type="line"/>
      <point x="131.0" y="-188.0" type="line"/>
      <point x="595.0" y="1329.0" type="line"/>
      <point x="862.0" y="1329.0" type="line"/>
      <point x="884.0" y="1399.0" type="line"/>
      <point x="486.0" y="1399.0" type="line"/>
    </contour>
  </outline>
</glyph>
<glyph name="bracketright" format="2">
  <advance width="617"/>
  <unicode hex="005D"/>
  <outline>
    <contour>
      <point x="724.0" y="1400.0" type="line"/>
      <point x="327.0" y="1400.0" type="line"/>
      <point x="306.0" y="1330.0" type="line"/>
      <point x="573.0" y="1330.0" type="line"/>
      <point x="109.0" y="-187.0" type="line"/>
      <point x="-158.0" y="-187.0" type="line"/>
      <point x="-180.0" y="-257.0" type="line"/>
      <point x="218.0" y="-257.0" type="line"/>
    </contour>
  </outline>
</glyph>
<glyph name="asciicircum" format="2">
  <advance width="1000"/>
  <unicode hex="005E"/>
  <guideline x="757.0" y="1246" angle="17.70899496409951" identifier="xLWgQyvl5X"/>
  <outline>
    <contour>
      <point x="757.0" y="1246.0" type="line"/>
      <point x="828.0" y="592.0" type="line"/>
      <point x="910.0" y="592.0" type="line"/>
      <point x="823.0" y="1340.0" type="line"/>
      <point x="739.0" y="1340.0" type="line"/>
      <point x="198.0" y="592.0" type="line"/>
      <point x="296.0" y="592.0" type="line"/>
      <point x="765.0" y="1246.0" type="line"/>
    </contour>
  </outline>
</glyph>
<glyph name="k" format="2">
  <advance width="900"/>
  <unicode hex="006B"/>
  <guideline x="563.0" y="1420" angle="174.8917353182591" identifier="E9MKC2hv4Y"/>
  <anchor x="780.0" y="1470.0" name="UCtop"/>
  <anchor x="358.0" y="0" name="bottom"/>
  <outline>
    <contour>
      <point x="573.0" y="1419.0" type="line"/>
      <point x="550.0" y="1419.0" type="line"/>
      <point x="281.0" y="1371.0" type="line"/>
      <point x="273.0" y="1346.0" type="line"/>
      <point x="330.0" y="1325.0"/>
      <point x="359.0" y="1303.0"/>
      <point x="395.0" y="1269.0" type="curve"/>
      <point x="13.0" y="0.0" type="line"/>
      <point x="146.0" y="0.0" type="line"/>
    </contour>
    <contour>
      <point x="284" y="476" type="line"/>
      <point x="452" y="29"/>
      <point x="486" y="-20"/>
      <point x="567" y="-20" type="curve" smooth="yes"/>
      <point x="646" y="-20"/>
      <point x="724" y="41"/>
      <point x="850" y="209" type="curve"/>
      <point x="818" y="238" type="line"/>
      <point x="747" y="151"/>
      <point x="668" y="92"/>
      <point x="626" y="92" type="curve" smooth="yes"/>
      <point x="580" y="92"/>
      <point x="552" y="127"/>
      <point x="391" y="543" type="curve"/>
      <point x="364" y="487" type="line"/>
      <point x="485" y="621"/>
      <point x="650" y="736"/>
      <point x="712" y="736" type="curve" smooth="yes"/>
      <point x="730.0" y="736.0"/>
      <point x="743.0" y="725.0"/>
      <point x="761" y="693" type="curve" smooth="yes"/>
      <point x="779" y="661"/>
      <point x="789.0" y="648.0"/>
      <point x="807" y="648" type="curve" smooth="yes"/>
      <point x="874" y="648"/>
      <point x="930" y="698"/>
      <point x="930" y="768" type="curve" smooth="yes"/>
      <point x="930" y="824"/>
      <point x="890" y="872"/>
      <point x="826" y="872" type="curve" smooth="yes"/>
      <point x="708" y="872"/>
      <point x="603" y="804"/>
      <point x="289" y="492" type="curve"/>
    </contour>
  </outline>
</glyph>
<glyph name="x" format="2">
  <advance width="913"/>
  <unicode hex="0078"/>
  <anchor x="585.0" y="852.0" name="top"/>
  <anchor x="345.0" y="0" name="bottom"/>
  <outline>
    <contour>
      <point x="496" y="410" type="line"/>
      <point x="611" y="574" type="line" smooth="yes"/>
      <point x="693" y="692"/>
      <point x="741" y="723"/>
      <point x="781" y="723" type="curve" smooth="yes"/>
      <point x="797.0" y="723.0"/>
      <point x="809" y="715.0"/>
      <point x="826" y="690" type="curve" smooth="yes"/>
      <point x="843" y="665"/>
      <point x="852" y="658.0"/>
      <point x="868" y="658" type="curve" smooth="yes"/>
      <point x="921" y="658"/>
      <point x="972" y="704"/>
      <point x="972" y="769" type="curve" smooth="yes"/>
      <point x="972" y="825"/>
      <point x="934" y="872"/>
      <point x="863" y="872" type="curve" smooth="yes"/>
      <point x="781" y="872"/>
      <point x="719" y="832"/>
      <point x="637" y="714" type="curve" smooth="yes"/>
      <point x="476" y="483" type="line"/>
      <point x="425" y="452" type="line"/>
      <point x="300" y="278" type="line" smooth="yes"/>
      <point x="215" y="159"/>
      <point x="167" y="129"/>
      <point x="130" y="129" type="curve" smooth="yes"/>
      <point x="114" y="129"/>
      <point x="102" y="137"/>
      <point x="87" y="159" type="curve" smooth="yes"/>
      <point x="72" y="181"/>
      <point x="61" y="194"/>
      <point x="43" y="194" type="curve" smooth="yes"/>
      <point x="-10" y="194"/>
      <point x="-61" y="148"/>
      <point x="-61" y="83" type="curve" smooth="yes"/>
      <point x="-61" y="27"/>
      <point x="-24" y="-20"/>
      <point x="48" y="-20" type="curve" smooth="yes"/>
      <point x="128" y="-20"/>
      <point x="188" y="17"/>
      <point x="274" y="138" type="curve" smooth="yes"/>
      <point x="445" y="379" type="line"/>
    </contour>
    <contour>
      <point x="858.0" y="331.0" type="curve"/>
      <point x="813.0" y="331.0" type="line"/>
      <point x="707.0" y="136.0"/>
      <point x="666" y="104"/>
      <point x="617.0" y="104.0" type="curve" smooth="yes"/>
      <point x="600.0" y="104.0"/>
      <point x="596" y="108"/>
      <point x="586.0" y="156.0" type="curve" smooth="yes"/>
      <point x="450.0" y="798.0" type="line" smooth="yes"/>
      <point x="438.0" y="855.0"/>
      <point x="417" y="872"/>
      <point x="375.0" y="872.0" type="curve" smooth="yes"/>
      <point x="269.0" y="872.0"/>
      <point x="182" y="798"/>
      <point x="117.0" y="536.0" type="curve"/>
      <point x="162.0" y="536.0" type="line"/>
      <point x="215.0" y="696"/>
      <point x="272.0" y="747.0"/>
      <point x="321.0" y="747.0" type="curve" smooth="yes"/>
      <point x="334" y="747"/>
      <point x="336.0" y="742.0"/>
      <point x="343.0" y="711.0" type="curve" smooth="yes"/>
      <point x="485.0" y="53.0" type="line" smooth="yes"/>
      <point x="498.0" y="-5.0"/>
      <point x="522" y="-20"/>
      <point x="566.0" y="-20.0" type="curve" smooth="yes"/>
      <point x="672.0" y="-20.0"/>
      <point x="736.0" y="39.0"/>
    </contour>
  </outline>
</glyph>
<glyph name="y" format="2">
  <advance width="897"/>
  <unicode hex="0079"/>
  <anchor x="515.0" y="852.0" name="top"/>
  <anchor x="661.0" y="-156" name="bottom"/>
  <outline>
    <contour>
      <point x="107.0" y="513.0" type="line"/>
      <point x="143.0" y="685.0"/>
      <point x="188" y="733"/>
      <point x="234.0" y="733.0" type="curve" smooth="yes"/>
      <point x="255.0" y="733.0"/>
      <point x="261.0" y="719.0"/>
      <point x="283.0" y="582.0" type="curve" smooth="yes"/>
      <point x="305" y="445"/>
      <point x="329.0" y="255.0"/>
      <point x="378.0" y="-169.0" type="curve"/>
      <point x="505.0" y="-74.0" type="line"/>
      <point x="449.0" y="403.0"/>
      <point x="420" y="639"/>
      <point x="397" y="743" type="curve" smooth="yes"/>
      <point x="374" y="847.0"/>
      <point x="348.0" y="872.0"/>
      <point x="303.0" y="872.0" type="curve" smooth="yes"/>
      <point x="180" y="872"/>
      <point x="101.0" y="791.0"/>
      <point x="66.0" y="513.0" type="curve"/>
    </contour>
    <contour>
      <point x="424" y="-69" type="line"/>
      <point x="302" y="-276"/>
      <point x="155" y="-413"/>
      <point x="82" y="-413" type="curve" smooth="yes"/>
      <point x="52" y="-413.0"/>
      <point x="22.0" y="-402.0"/>
      <point x="-16" y="-364" type="curve" smooth="yes"/>
      <point x="-54" y="-326"/>
      <point x="-63" y="-319.0"/>
      <point x="-75" y="-319" type="curve" smooth="yes"/>
      <point x="-121" y="-319"/>
      <point x="-156" y="-358"/>
      <point x="-156" y="-412" type="curve" smooth="yes"/>
      <point x="-156" y="-483"/>
      <point x="-116" y="-530"/>
      <point x="-18" y="-530" type="curve" smooth="yes"/>
      <point x="151" y="-530"/>
      <point x="306" y="-410"/>
      <point x="556" y="2" type="curve" smooth="yes"/>
      <point x="806" y="414"/>
      <point x="887" y="651"/>
      <point x="887" y="825" type="curve" smooth="yes"/>
      <point x="887" y="858"/>
      <point x="869" y="872"/>
      <point x="834" y="872" type="curve" smooth="yes"/>
      <point x="802" y="872"/>
      <point x="769" y="868"/>
      <point x="727" y="854" type="curve"/>
      <point x="729" y="492"/>
      <point x="672" y="296"/>
      <point x="457" y="-33" type="curve"/>
    </contour>
  </outline>
</glyph>
<glyph name="bar" format="2">
  <advance width="483"/>
  <unicode hex="007C"/>
  <outline>
    <contour>
      <point x="-92.0" y="-530.0" type="line"/>
      <point x="12.0" y="-530.0" type="line"/>
      <point x="600.0" y="1470.0" type="line"/>
      <point x="496.0" y="1470.0" type="line"/>
    </contour>
  </outline>
</glyph>
<glyph name="braceright" format="2">
  <advance width="608"/>
  <unicode hex="007D"/>
  <outline>
    <contour>
      <point x="629.0" y="604.0" type="line"/>
      <point x="540.0" y="607.0" type="line" smooth="yes"/>
      <point x="470.0" y="609.0"/>
      <point x="433.0" y="635.0"/>
      <point x="433.0" y="690.0" type="curve" smooth="yes"/>
      <point x="433.0" y="791.0"/>
      <point x="578.0" y="1067.0"/>
      <point x="578.0" y="1186.0" type="curve" smooth="yes"/>
      <point x="578.0" y="1292.0"/>
      <point x="512.0" y="1380.0"/>
      <point x="394.0" y="1402.0" type="curve" smooth="yes"/>
      <point x="352.0" y="1410.0" type="line"/>
      <point x="331.0" y="1364.0" type="line"/>
      <point x="359.0" y="1356.0" type="line" smooth="yes"/>
      <point x="427.0" y="1337.0"/>
      <point x="453.0" y="1287.0"/>
      <point x="453.0" y="1224.0" type="curve" smooth="yes"/>
      <point x="453.0" y="1113.0"/>
      <point x="326.0" y="834.0"/>
      <point x="326.0" y="730.0" type="curve" smooth="yes"/>
      <point x="326.0" y="658.0"/>
      <point x="365.0" y="593.0"/>
      <point x="456.0" y="563.0" type="curve"/>
      <point x="462.0" y="583.0" type="line"/>
      <point x="328.0" y="546.0"/>
      <point x="245.0" y="442.0"/>
      <point x="221.0" y="354.0" type="curve" smooth="yes"/>
      <point x="185.0" y="216.0"/>
      <point x="182.0" y="100.0"/>
      <point x="153.0" y="-8.0" type="curve" smooth="yes"/>
      <point x="126.0" y="-110.0"/>
      <point x="76.0" y="-192.0"/>
      <point x="-57.0" y="-203.0" type="curve" smooth="yes"/>
      <point x="-150.0" y="-211.0" type="line"/>
      <point x="-162.0" y="-272.0" type="line"/>
      <point x="-51.0" y="-264.0" type="line" smooth="yes"/>
      <point x="140.0" y="-250.0"/>
      <point x="262.0" y="-122.0"/>
      <point x="301.0" y="24.0" type="curve" smooth="yes"/>
      <point x="332.0" y="142.0"/>
      <point x="316.0" y="241.0"/>
      <point x="359.0" y="405.0" type="curve" smooth="yes"/>
      <point x="382.0" y="489.0"/>
      <point x="431.0" y="528.0"/>
      <point x="521.0" y="531.0" type="curve" smooth="yes"/>
      <point x="608.0" y="534.0" type="line"/>
    </contour>
  </outline>
</glyph>
<glyph name="brokenbar" format="2">
  <advance width="483"/>
  <unicode hex="00A6"/>
  <outline>
    <contour>
      <point x="363.0" y="660.0" type="line"/>
      <point x="601.0" y="1470.0" type="line"/>
      <point x="497.0" y="1470.0" type="line"/>
      <point x="259.0" y="660.0" type="line"/>
    </contour>
    <contour>
      <point x="-91.0" y="-530.0" type="line"/>
      <point x="13.0" y="-530.0" type="line"/>
      <point x="251.0" y="280.0" type="line"/>
      <point x="147.0" y="280.0" type="line"/>
    </contour>
  </outline>
</glyph>
<glyph name="copyright" format="2">
  <advance width="1653"/>
  <unicode hex="00A9"/>
  <guideline x="231.0" y="767" angle="1.200691005326913" identifier="Ym6n7BVotX"/>
  <outline>
    <contour>
      <point x="892.0" y="348.0" type="curve" smooth="yes"/>
      <point x="724.0" y="348.0"/>
      <point x="649.0" y="442.0"/>
      <point x="649.0" y="599.0" type="curve" smooth="yes"/>
      <point x="649.0" y="797.0"/>
      <point x="756.0" y="1000.0"/>
      <point x="1002.0" y="1000.0" type="curve" smooth="yes"/>
      <point x="1070.0" y="1000.0"/>
      <point x="1143.0" y="984.0"/>
      <point x="1184.0" y="956.0" type="curve"/>
      <point x="1139.0" y="994.0" type="line"/>
      <point x="1192.0" y="797.0" type="line"/>
      <point x="1223.0" y="797.0" type="line"/>
      <point x="1271.0" y="1093.0" type="line"/>
      <point x="1261.0" y="1093.0" type="line"/>
      <point x="1159.0" y="1041.0" type="line"/>
      <point x="1207.0" y="1046.0" type="line"/>
      <point x="1160.0" y="1057.0"/>
      <point x="1076.0" y="1065.0"/>
      <point x="1017.0" y="1065.0" type="curve" smooth="yes"/>
      <point x="707.0" y="1065.0"/>
      <point x="512.0" y="850.0"/>
      <point x="512.0" y="605.0" type="curve" smooth="yes"/>
      <point x="512.0" y="410.0"/>
      <point x="646.0" y="287.0"/>
      <point x="879.0" y="287.0" type="curve" smooth="yes"/>
      <point x="955.0" y="287.0"/>
      <point x="1001.0" y="298.0"/>
      <point x="1076.0" y="322.0" type="curve"/>
      <point x="1177.0" y="544.0" type="line"/>
      <point x="1137.0" y="544.0" type="line"/>
      <point x="970.0" y="343.0" type="line"/>
      <point x="1042.0" y="384.0" type="line"/>
      <point x="972.0" y="352.0"/>
      <point x="949.0" y="348.0"/>
    </contour>
    <contour>
      <point x="828.0" y="66.0" type="curve" smooth="yes"/>
      <point x="509.0" y="66.0"/>
      <point x="293.0" y="270.0"/>
      <point x="293.0" y="576.0" type="curve" smooth="yes"/>
      <point x="293.0" y="934.0"/>
      <point x="573.0" y="1274.0"/>
      <point x="973.0" y="1274.0" type="curve" smooth="yes"/>
      <point x="1292.0" y="1274.0"/>
      <point x="1508.0" y="1070.0"/>
      <point x="1508.0" y="764.0" type="curve" smooth="yes"/>
      <point x="1508.0" y="406.0"/>
      <point x="1228.0" y="66.0"/>
    </contour>
    <contour>
      <point x="976.0" y="1360.0" type="curve" smooth="yes"/>
      <point x="514.0" y="1360.0"/>
      <point x="192.0" y="980.0"/>
      <point x="192.0" y="565.0" type="curve" smooth="yes"/>
      <point x="192.0" y="208.0"/>
      <point x="448.0" y="-20.0"/>
      <point x="824.0" y="-20.0" type="curve" smooth="yes"/>
      <point x="1287.0" y="-20.0"/>
      <point x="1609.0" y="360.0"/>
      <point x="1609.0" y="775.0" type="curve" smooth="yes"/>
      <point x="1609.0" y="1132.0"/>
      <point x="1353.0" y="1360.0"/>
    </contour>
  </outline>
</glyph>
<glyph name="plusminus" format="2">
  <advance width="1000"/>
  <unicode hex="00B1"/>
  <guideline x="132.0" y="394" angle="126.5" identifier="3TjqkoJMiK"/>
  <outline>
    <contour>
      <point x="585.0" y="852.0" type="line"/>
      <point x="367.0" y="138.0" type="line"/>
      <point x="455.0" y="138.0" type="line"/>
      <point x="673.0" y="852.0" type="line"/>
    </contour>
    <contour>
      <point x="176.0" y="537.0" type="line"/>
      <point x="150.0" y="453.0" type="line"/>
      <point x="864.0" y="453.0" type="line"/>
      <point x="890.0" y="537.0" type="line"/>
    </contour>
    <contour>
      <point x="38.0" y="84.0" type="line"/>
      <point x="12.0" y="0.0" type="line"/>
      <point x="726.0" y="0.0" type="line"/>
      <point x="752.0" y="84.0" type="line"/>
    </contour>
  </outline>
</glyph>
<glyph name="uni00B3" format="2">
  <advance width="609"/>
  <unicode hex="00B3"/>
  <outline>
    <contour>
      <point x="356.0" y="944.0" type="line"/>
      <point x="397.0" y="954.0" type="line" smooth="yes"/>
      <point x="499.5" y="979.625"/>
      <point x="553.0" y="939.0"/>
      <point x="553.0" y="861.0" type="curve" smooth="yes"/>
      <point x="553.0" y="738.0"/>
      <point x="456.0" y="637.0"/>
      <point x="359.0" y="637.0" type="curve" smooth="yes"/>
      <point x="270.0" y="637.0"/>
      <point x="260.0" y="715.0"/>
      <point x="198.0" y="715.0" type="curve" smooth="yes"/>
      <point x="157.0" y="715.0"/>
      <point x="140.0" y="686.0"/>
      <point x="140.0" y="660.0" type="curve" smooth="yes"/>
      <point x="140.0" y="620.0"/>
      <point x="176.0" y="578.0"/>
      <point x="297.0" y="578.0" type="curve" smooth="yes"/>
      <point x="521.0" y="578.0"/>
      <point x="676.0" y="708.0"/>
      <point x="676.0" y="872.0" type="curve" smooth="yes"/>
      <point x="676.0" y="964.0"/>
      <point x="621.0" y="1018.0"/>
      <point x="517.0" y="1018.0" type="curve"/>
      <point x="504.0" y="1012.0" type="line"/>
      <point x="641.0" y="1053.0"/>
      <point x="705.0" y="1133.0"/>
      <point x="705.0" y="1215.0" type="curve" smooth="yes"/>
      <point x="705.0" y="1301.0"/>
      <point x="640.0" y="1354.0"/>
      <point x="542.0" y="1354.0" type="curve" smooth="yes"/>
      <point x="412.0" y="1354.0"/>
      <point x="335.0" y="1270.0"/>
      <point x="293.0" y="1138.0" type="curve"/>
      <point x="327.0" y="1128.0" type="line"/>
      <point x="360.0" y="1218.0"/>
      <point x="413.0" y="1256.0"/>
      <point x="488.0" y="1256.0" type="curve" smooth="yes"/>
      <point x="551.0" y="1256.0"/>
      <point x="586.0" y="1221.0"/>
      <point x="586.0" y="1167.0" type="curve" smooth="yes"/>
      <point x="586.0" y="1097.0"/>
      <point x="543.0" y="1038.0"/>
      <point x="357.0" y="987.0" type="curve"/>
    </contour>
  </outline>
</glyph>
<glyph name="guillemotright" format="2">
  <advance width="988"/>
  <unicode hex="00BB"/>
  <outline>
    <contour>
      <point x="351.0" y="357.0" type="line"/>
      <point x="406.0" y="535.0" type="line"/>
      <point x="-21.0" y="70.0" type="line"/>
      <point x="15.0" y="25.0" type="line"/>
      <point x="515.0" y="413.0" type="line"/>
      <point x="526.0" y="449.0" type="line"/>
      <point x="263.0" y="837.0" type="line"/>
      <point x="214.0" y="816.0" type="line"/>
    </contour>
    <contour>
      <point x="731.0" y="357.0" type="line"/>
      <point x="786.0" y="535.0" type="line"/>
      <point x="359.0" y="70.0" type="line"/>
      <point x="395.0" y="25.0" type="line"/>
      <point x="895.0" y="413.0" type="line"/>
      <point x="906.0" y="449.0" type="line"/>
      <point x="643.0" y="837.0" type="line"/>
      <point x="594.0" y="816.0" type="line"/>
    </contour>
  </outline>
</glyph>
<glyph name="Thorn" format="2">
  <advance width="1167"/>
  <unicode hex="00DE"/>
  <outline>
    <contour>
      <point x="628.0" y="405.0" type="curve" smooth="yes"/>
      <point x="246.0" y="405.0" type="line"/>
      <point x="230.0" y="317.0" type="line"/>
      <point x="596.0" y="317.0" type="line" smooth="yes"/>
      <point x="957.0" y="317.0"/>
      <point x="1177.0" y="505.0"/>
      <point x="1177.0" y="777.0" type="curve" smooth="yes"/>
      <point x="1177.0" y="942.0"/>
      <point x="1058.0" y="1070.0"/>
      <point x="766.0" y="1070.0" type="curve" smooth="yes"/>
      <point x="462.0" y="1070.0" type="line"/>
      <point x="420.0" y="982.0" type="line"/>
      <point x="734.0" y="982.0" type="line" smooth="yes"/>
      <point x="932.0" y="982.0"/>
      <point x="1016.0" y="901.0"/>
      <point x="1016.0" y="753.0" type="curve" smooth="yes"/>
      <point x="1016.0" y="529.0"/>
      <point x="860.0" y="405.0"/>
    </contour>
    <contour>
      <point x="495.0" y="1257.0" type="line"/>
      <point x="140.0" y="86.0" type="line"/>
      <point x="-22.0" y="38.0" type="line"/>
      <point x="-34.0" y="0.0" type="line"/>
      <point x="418.0" y="0.0" type="line"/>
      <point x="430.0" y="38.0" type="line"/>
      <point x="291.0" y="83.0" type="line"/>
      <point x="646.0" y="1254.0" type="line"/>
      <point x="808.0" y="1302.0" type="line"/>
      <point x="820.0" y="1340.0" type="line"/>
      <point x="368.0" y="1340.0" type="line"/>
      <point x="356.0" y="1302.0" type="line"/>
    </contour>
  </outline>
</glyph>
<glyph name="ccedilla" format="2">
  <advance width="702"/>
  <unicode hex="00E7"/>
  <outline>
    <contour>
      <point x="112.0" y="-530.0" type="curve"/>
      <point x="271.0" y="-530.0"/>
      <point x="404.0" y="-420.0"/>
      <point x="404.0" y="-281.0" type="curve" smooth="yes"/>
      <point x="404.0" y="-213.0"/>
      <point x="365.0" y="-151.0"/>
      <point x="229.0" y="-126.0" type="curve"/>
      <point x="195.0" y="-216.0" type="line"/>
      <point x="405.0" y="50.0" type="line"/>
      <point x="332.0" y="50.0" type="line"/>
      <point x="127.0" y="-211.0" type="line"/>
      <point x="121.0" y="-229.0" type="line"/>
      <point x="256.0" y="-247.0"/>
      <point x="304.0" y="-283.0"/>
      <point x="304.0" y="-340.0" type="curve" smooth="yes"/>
      <point x="304.0" y="-410.0"/>
      <point x="254.0" y="-459.0"/>
      <point x="179.0" y="-459.0" type="curve" smooth="yes"/>
      <point x="114.0" y="-459.0"/>
      <point x="113.0" y="-396.0"/>
      <point x="61.0" y="-396.0" type="curve" smooth="yes"/>
      <point x="21.0" y="-396.0"/>
      <point x="-2.0" y="-424.0"/>
      <point x="-2.0" y="-456.0" type="curve" smooth="yes"/>
      <point x="-2.0" y="-492.0"/>
      <point x="32.0" y="-530.0"/>
    </contour>
    <contour>
      <point x="458" y="794" type="curve" smooth="yes"/>
      <point x="499" y="794"/>
      <point x="533" y="763"/>
      <point x="562" y="731" type="curve" smooth="yes"/>
      <point x="591" y="699"/>
      <point x="615" y="666"/>
      <point x="635" y="667" type="curve" smooth="yes"/>
      <point x="682" y="668"/>
      <point x="716" y="693"/>
      <point x="716" y="745" type="curve" smooth="yes"/>
      <point x="716" y="811"/>
      <point x="658" y="872"/>
      <point x="539" y="872" type="curve" smooth="yes"/>
      <point x="279" y="872"/>
      <point x="57" y="590"/>
      <point x="57" y="240" type="curve" smooth="yes"/>
      <point x="57" y="64"/>
      <point x="139" y="-20"/>
      <point x="285" y="-20" type="curve" smooth="yes"/>
      <point x="419" y="-20"/>
      <point x="512" y="48"/>
      <point x="617" y="276" type="curve"/>
      <point x="563" y="276" type="line"/>
      <point x="488" y="137"/>
      <point x="412" y="93"/>
      <point x="330" y="93" type="curve" smooth="yes"/>
      <point x="245" y="93"/>
      <point x="202" y="144"/>
      <point x="202" y="282" type="curve" smooth="yes"/>
      <point x="202" y="512"/>
      <point x="311" y="794"/>
    </contour>
  </outline>
</glyph>
<glyph name="thorn" format="2">
  <advance width="886"/>
  <unicode hex="00FE"/>
  <outline>
    <contour>
      <point x="234.0" y="286.0" type="curve" smooth="yes"/>
      <point x="254.0" y="365.0" type="line" smooth="yes"/>
      <point x="299.0" y="542.0"/>
      <point x="450.0" y="744.0"/>
      <point x="578.0" y="744.0" type="curve" smooth="yes"/>
      <point x="656.0" y="744.0"/>
      <point x="689.0" y="696.0"/>
      <point x="689.0" y="596.0" type="curve" smooth="yes"/>
      <point x="689.0" y="327.0"/>
      <point x="491.0" y="45.0"/>
      <point x="341.0" y="45.0" type="curve" smooth="yes"/>
      <point x="249.0" y="45.0"/>
      <point x="216.0" y="103.0"/>
      <point x="216.0" y="172.0" type="curve" smooth="yes"/>
      <point x="216.0" y="190.0"/>
      <point x="218.0" y="223.0"/>
    </contour>
    <contour>
      <point x="284.0" y="502.0" type="line"/>
      <point x="552.0" y="1419.0" type="line"/>
      <point x="529.0" y="1419.0" type="line"/>
      <point x="260.0" y="1370.0" type="line"/>
      <point x="252.0" y="1345.0" type="line"/>
      <point x="309.0" y="1324.0"/>
      <point x="338.0" y="1302.0"/>
      <point x="374.0" y="1268.0" type="curve"/>
      <point x="-92.0" y="-424.0" type="line"/>
      <point x="-241.0" y="-473.0" type="line"/>
      <point x="-255.0" y="-510.0" type="line"/>
      <point x="197.0" y="-510.0" type="line"/>
      <point x="211.0" y="-473.0" type="line"/>
      <point x="41.0" y="-424.0" type="line"/>
      <point x="178.0" y="73.0" type="line"/>
      <point x="102.0" y="73.0" type="line"/>
      <point x="144.0" y="7.0"/>
      <point x="246.0" y="-20.0"/>
      <point x="327.0" y="-20.0" type="curve" smooth="yes"/>
      <point x="615.0" y="-20.0"/>
      <point x="838.0" y="314.0"/>
      <point x="838.0" y="643.0" type="curve" smooth="yes"/>
      <point x="838.0" y="763.0"/>
      <point x="779.0" y="872.0"/>
      <point x="637.0" y="872.0" type="curve" smooth="yes"/>
      <point x="530.0" y="872.0"/>
      <point x="399.0" y="769.0"/>
      <point x="277.0" y="532.0" type="curve"/>
    </contour>
  </outline>
</glyph>
<glyph name="aogonek" format="2">
  <advance width="924"/>
  <unicode hex="0105"/>
  <outline>
    <contour>
      <point x="892.0" y="195.0" type="curve"/>
      <point x="864.0" y="227.0" type="line"/>
      <point x="776.0" y="146.0"/>
      <point x="675.0" y="98.0"/>
      <point x="609.0" y="109.0" type="curve"/>
      <point x="626.0" y="71.0" type="line"/>
      <point x="877.0" y="852.0" type="line"/>
      <point x="862.0" y="852.0" type="line"/>
      <point x="741.0" y="852.0" type="line"/>
      <point x="624.0" y="487.0" type="line" smooth="yes"/>
      <point x="553.0" y="267.0"/>
      <point x="345.0" y="103.0"/>
      <point x="257.0" y="103.0" type="curve" smooth="yes"/>
      <point x="208.0" y="103.0"/>
      <point x="172.0" y="130.0"/>
      <point x="172.0" y="188.0" type="curve" smooth="yes"/>
      <point x="172.0" y="352.0"/>
      <point x="357.0" y="783.0"/>
      <point x="597.0" y="783.0" type="curve" smooth="yes"/>
      <point x="654.0" y="783.0"/>
      <point x="691.0" y="752.0"/>
      <point x="702.0" y="720.0" type="curve"/>
      <point x="742.0" y="774.0" type="line"/>
      <point x="700.0" y="828.0"/>
      <point x="655.0" y="855.0"/>
      <point x="578.0" y="855.0" type="curve" smooth="yes"/>
      <point x="281.0" y="855.0"/>
      <point x="24.0" y="431.0"/>
      <point x="24.0" y="180.0" type="curve" smooth="yes"/>
      <point x="24.0" y="39.0"/>
      <point x="93.0" y="-17.0"/>
      <point x="202.0" y="-17.0" type="curve" smooth="yes"/>
      <point x="305.0" y="-17.0"/>
      <point x="418.0" y="70.0"/>
      <point x="618.0" y="367.0" type="curve"/>
      <point x="592.0" y="367.0" type="line"/>
      <point x="488.0" y="45.0" type="line" smooth="yes"/>
      <point x="475.0" y="6.0"/>
      <point x="503.0" y="-20.0"/>
      <point x="560.0" y="-20.0" type="curve" smooth="yes"/>
      <point x="593.0" y="-20.0"/>
      <point x="628.0" y="-12.0"/>
      <point x="665.0" y="5.0" type="curve"/>
      <point x="665.0" y="20.0" type="line"/>
      <point x="488.0" y="-126.0" type="line" smooth="yes"/>
      <point x="358.0" y="-234.0"/>
      <point x="316.0" y="-310.0"/>
      <point x="316.0" y="-393.0" type="curve" smooth="yes"/>
      <point x="316.0" y="-474.0"/>
      <point x="378.0" y="-530.0"/>
      <point x="460.0" y="-530.0" type="curve" smooth="yes"/>
      <point x="545.0" y="-530.0"/>
      <point x="605.0" y="-484.0"/>
      <point x="712.0" y="-370.0" type="curve"/>
      <point x="694.0" y="-344.0" type="line"/>
      <point x="608.0" y="-415.0"/>
      <point x="573.0" y="-430.0"/>
      <point x="532.0" y="-430.0" type="curve" smooth="yes"/>
      <point x="471.0" y="-430.0"/>
      <point x="434.0" y="-392.0"/>
      <point x="434.0" y="-333.0" type="curve" smooth="yes"/>
      <point x="434.0" y="-262.0"/>
      <point x="476.0" y="-199.0"/>
      <point x="578.0" y="-105.0" type="curve" smooth="yes"/>
      <point x="761.0" y="64.0" type="line" smooth="yes"/>
      <point x="823.0" y="122.0"/>
      <point x="864.0" y="165.0"/>
    </contour>
  </outline>
</glyph>
<glyph name="eogonek" format="2">
  <advance width="743"/>
  <unicode hex="0119"/>
  <outline>
    <contour>
      <point x="533.0" y="87.0" type="line" smooth="yes"/>
      <point x="569.0" y="132.0"/>
      <point x="603.0" y="193.0"/>
      <point x="639.0" y="276.0" type="curve"/>
      <point x="583.0" y="276.0" type="line"/>
      <point x="512.0" y="132.0"/>
      <point x="441.0" y="93.0"/>
      <point x="351.0" y="93.0" type="curve" smooth="yes"/>
      <point x="263.0" y="93.0"/>
      <point x="203.0" y="144.0"/>
      <point x="203.0" y="282.0" type="curve" smooth="yes"/>
      <point x="203.0" y="476.0"/>
      <point x="302.0" y="805.0"/>
      <point x="498.0" y="805.0" type="curve" smooth="yes"/>
      <point x="559.0" y="805.0"/>
      <point x="592.0" y="767.0"/>
      <point x="592.0" y="712.0" type="curve" smooth="yes"/>
      <point x="592.0" y="622.0"/>
      <point x="514.0" y="537.0"/>
      <point x="193.0" y="446.0" type="curve"/>
      <point x="190.0" y="374.0" type="line"/>
      <point x="347.0" y="425.0"/>
      <point x="502.0" y="482.0"/>
      <point x="657.0" y="547.0" type="curve"/>
      <point x="696.0" y="579.0"/>
      <point x="723.0" y="642.0"/>
      <point x="723.0" y="699.0" type="curve" smooth="yes"/>
      <point x="723.0" y="788.0"/>
      <point x="664.0" y="872.0"/>
      <point x="524.0" y="872.0" type="curve" smooth="yes"/>
      <point x="280.0" y="872.0"/>
      <point x="58.0" y="590.0"/>
      <point x="58.0" y="240.0" type="curve" smooth="yes"/>
      <point x="58.0" y="69.0"/>
      <point x="155.0" y="-20.0"/>
      <point x="305.0" y="-20.0" type="curve" smooth="yes"/>
      <point x="354.0" y="-20.0"/>
      <point x="396.0" y="-13.0"/>
      <point x="434.0" y="5.0" type="curve"/>
      <point x="422.0" y="19.0" type="line"/>
      <point x="267.0" y="-157.0" type="line" smooth="yes"/>
      <point x="168.0" y="-269.0"/>
      <point x="139.0" y="-345.0"/>
      <point x="139.0" y="-406.0" type="curve" smooth="yes"/>
      <point x="139.0" y="-484.0"/>
      <point x="193.0" y="-530.0"/>
      <point x="271.0" y="-530.0" type="curve" smooth="yes"/>
      <point x="356.0" y="-530.0"/>
      <point x="416.0" y="-484.0"/>
      <point x="523.0" y="-370.0" type="curve"/>
      <point x="505.0" y="-344.0" type="line"/>
      <point x="419.0" y="-415.0"/>
      <point x="384.0" y="-430.0"/>
      <point x="343.0" y="-430.0" type="curve" smooth="yes"/>
      <point x="290.0" y="-430.0"/>
      <point x="256.0" y="-400.0"/>
      <point x="256.0" y="-346.0" type="curve" smooth="yes"/>
      <point x="256.0" y="-295.0"/>
      <point x="283.0" y="-225.0"/>
      <point x="356.0" y="-134.0" type="curve" smooth="yes"/>
    </contour>
  </outline>
</glyph>
<glyph name="kgreenlandic" format="2">
  <advance width="974"/>
  <unicode hex="0138"/>
  <outline>
    <contour>
      <point x="483.0" y="852.0" type="line"/>
      <point x="446.0" y="864.0"/>
      <point x="407.0" y="871.0"/>
      <point x="367.0" y="871.0" type="curve" smooth="yes"/>
      <point x="254.0" y="871.0"/>
      <point x="140.0" y="808.0"/>
      <point x="56.0" y="597.0" type="curve"/>
      <point x="92.0" y="582.0" type="line"/>
      <point x="163.0" y="711.0"/>
      <point x="228.0" y="746.0"/>
      <point x="300.0" y="746.0" type="curve" smooth="yes"/>
      <point x="305.0" y="746.0"/>
      <point x="310.0" y="746.0"/>
      <point x="315.0" y="746.0" type="curve"/>
      <point x="86.0" y="0.0" type="line"/>
      <point x="218.0" y="0.0" type="line"/>
    </contour>
    <contour>
      <point x="881.0" y="648.0" type="curve" smooth="yes"/>
      <point x="948.0" y="648.0"/>
      <point x="1004.0" y="698.0"/>
      <point x="1004.0" y="768.0" type="curve" smooth="yes"/>
      <point x="1004.0" y="824.0"/>
      <point x="964" y="872"/>
      <point x="900.0" y="872.0" type="curve" smooth="yes"/>
      <point x="806.0" y="872.0"/>
      <point x="730" y="830.0"/>
      <point x="355.0" y="451.0" type="curve"/>
      <point x="350.0" y="435.0" type="line"/>
      <point x="521.0" y="17.0"/>
      <point x="558.0" y="-20.0"/>
      <point x="641.0" y="-20.0" type="curve" smooth="yes"/>
      <point x="720.0" y="-20.0"/>
      <point x="798.0" y="41.0"/>
      <point x="924.0" y="209.0" type="curve"/>
      <point x="892.0" y="238.0" type="line"/>
      <point x="823" y="153"/>
      <point x="741.0" y="92.0"/>
      <point x="690.0" y="92.0" type="curve" smooth="yes"/>
      <point x="648" y="92"/>
      <point x="614.0" y="128"/>
      <point x="457.0" y="502.0" type="curve"/>
      <point x="430.0" y="446.0" type="line"/>
      <point x="581.0" y="616"/>
      <point x="733.0" y="736.0"/>
      <point x="786.0" y="736.0" type="curve" smooth="yes"/>
      <point x="804" y="736"/>
      <point x="817.0" y="725.0"/>
      <point x="835.0" y="693.0" type="curve" smooth="yes"/>
      <point x="853.0" y="661.0"/>
      <point x="863.0" y="648.0"/>
    </contour>
  </outline>
</glyph>
<glyph name="Lslash" format="2">
  <advance width="1146"/>
  <unicode hex="0141"/>
  <guideline x="77.0" y="426" angle="0.852172422492109" identifier="gXAWP4fTfk"/>
  <outline>
    <contour>
      <point x="683.0" y="1254.0" type="line"/>
      <point x="845.0" y="1302.0" type="line"/>
      <point x="857.0" y="1340.0" type="line"/>
      <point x="405.0" y="1340.0" type="line"/>
      <point x="393.0" y="1302.0" type="line"/>
      <point x="532.0" y="1257.0" type="line"/>
      <point x="177.0" y="86.0" type="line"/>
      <point x="15.0" y="38.0" type="line"/>
      <point x="3.0" y="0.0" type="line"/>
      <point x="303.0" y="0.0" type="line"/>
    </contour>
    <contour>
      <point x="765.0" y="68.0" type="line"/>
      <point x="844.0" y="88.0" type="line"/>
      <point x="260.0" y="88.0" type="line"/>
      <point x="231.0" y="0.0" type="line"/>
      <point x="786.0" y="0.0" type="line"/>
      <point x="882.0" y="-59.0" type="line"/>
      <point x="897.0" y="-59.0" type="line"/>
      <point x="1096.0" y="360.0" type="line"/>
      <point x="1061.0" y="381.0" type="line"/>
    </contour>
    <contour>
      <point x="870.0" y="911.0" type="line"/>
      <point x="470.0" y="709.0" type="line"/>
      <point x="401.0" y="697.0" type="line"/>
      <point x="116.0" y="553.0" type="line"/>
      <point x="81.0" y="437.0" type="line"/>
      <point x="368.0" y="582.0" type="line"/>
      <point x="442.0" y="596.0" type="line"/>
      <point x="835.0" y="795.0" type="line"/>
    </contour>
  </outline>
</glyph>
<glyph name="tbar" format="2">
  <advance width="618"/>
  <unicode hex="0167"/>
  <outline>
    <contour>
      <point x="86.0" y="479.0" type="line"/>
      <point x="533.0" y="479.0" type="line"/>
      <point x="558.0" y="559.0" type="line"/>
      <point x="110.0" y="559.0" type="line"/>
    </contour>
    <contour>
      <point x="141.0" y="772.0" type="line"/>
      <point x="633.0" y="772.0" type="line"/>
      <point x="649.0" y="852.0" type="line"/>
      <point x="159.0" y="852.0" type="line"/>
    </contour>
    <contour>
      <point x="265.0" y="143.0" type="curve" smooth="yes"/>
      <point x="265.0" y="159.0"/>
      <point x="269.0" y="181.0"/>
      <point x="278.0" y="211.0" type="curve" smooth="yes"/>
      <point x="511.0" y="1026.0" type="line"/>
      <point x="376.0" y="1026.0" type="line"/>
      <point x="156.0" y="236.0" type="line" smooth="yes"/>
      <point x="139.0" y="176.0"/>
      <point x="132.0" y="129.0"/>
      <point x="132.0" y="93.0" type="curve" smooth="yes"/>
      <point x="132.0" y="11.0"/>
      <point x="170.0" y="-18.0"/>
      <point x="227.0" y="-18.0" type="curve" smooth="yes"/>
      <point x="325.0" y="-18.0"/>
      <point x="441.0" y="106.0"/>
      <point x="557.0" y="284.0" type="curve"/>
      <point x="517.0" y="310.0" type="line"/>
      <point x="427.0" y="190.0"/>
      <point x="328.0" y="111.0"/>
      <point x="287.0" y="111.0" type="curve" smooth="yes"/>
      <point x="273.0" y="111.0"/>
      <point x="265.0" y="121.0"/>
    </contour>
  </outline>
</glyph>
<glyph name="Uogonek" format="2">
  <advance width="1442"/>
  <unicode hex="0172"/>
  <outline>
    <contour>
      <point x="394.0" y="514.0" type="curve" smooth="yes"/>
      <point x="620.0" y="1254.0" type="line"/>
      <point x="782.0" y="1302.0" type="line"/>
      <point x="794.0" y="1340.0" type="line"/>
      <point x="342.0" y="1340.0" type="line"/>
      <point x="330.0" y="1302.0" type="line"/>
      <point x="469.0" y="1257.0" type="line"/>
      <point x="245.0" y="523.0" type="line" smooth="yes"/>
      <point x="132.0" y="154.0"/>
      <point x="299.0" y="-20.0"/>
      <point x="637.0" y="-20.0" type="curve" smooth="yes"/>
      <point x="927.0" y="-20.0"/>
      <point x="1141.0" y="117.0"/>
      <point x="1246.0" y="464.0" type="curve" smooth="yes"/>
      <point x="1486.0" y="1254.0" type="line"/>
      <point x="1648.0" y="1302.0" type="line"/>
      <point x="1660.0" y="1340.0" type="line"/>
      <point x="1273.0" y="1340.0" type="line"/>
      <point x="1261.0" y="1302.0" type="line"/>
      <point x="1400.0" y="1257.0" type="line"/>
      <point x="1166.0" y="489.0" type="line" smooth="yes"/>
      <point x="1074.0" y="187.0"/>
      <point x="889.0" y="92.0"/>
      <point x="676.0" y="92.0" type="curve" smooth="yes"/>
      <point x="391.0" y="92.0"/>
      <point x="309.0" y="236.0"/>
    </contour>
    <contour>
      <point x="468.0" y="-346.0" type="curve" smooth="yes"/>
      <point x="468.0" y="-295.0"/>
      <point x="498.0" y="-223.0"/>
      <point x="571.0" y="-136.0" type="curve" smooth="yes"/>
      <point x="722.0" y="46.0" type="line"/>
      <point x="671.0" y="46.0" type="line"/>
      <point x="482.0" y="-159.0" type="line" smooth="yes"/>
      <point x="381.0" y="-269.0"/>
      <point x="351.0" y="-345.0"/>
      <point x="351.0" y="-406.0" type="curve" smooth="yes"/>
      <point x="351.0" y="-484.0"/>
      <point x="405.0" y="-530.0"/>
      <point x="483.0" y="-530.0" type="curve" smooth="yes"/>
      <point x="568.0" y="-530.0"/>
      <point x="628.0" y="-484.0"/>
      <point x="735.0" y="-370.0" type="curve"/>
      <point x="717.0" y="-344.0" type="line"/>
      <point x="631.0" y="-415.0"/>
      <point x="596.0" y="-430.0"/>
      <point x="555.0" y="-430.0" type="curve" smooth="yes"/>
      <point x="502.0" y="-430.0"/>
      <point x="468.0" y="-400.0"/>
    </contour>
  </outline>
</glyph>
<glyph name="uogonek" format="2">
  <advance width="967"/>
  <unicode hex="0173"/>
  <outline>
    <contour>
      <point x="958.0" y="195.0" type="curve"/>
      <point x="930.0" y="227.0" type="line"/>
      <point x="842.0" y="146.0"/>
      <point x="740.0" y="101.0"/>
      <point x="675.0" y="109.0" type="curve"/>
      <point x="674.0" y="80.0" type="line"/>
      <point x="908.0" y="852.0" type="line"/>
      <point x="773.0" y="852.0" type="line"/>
      <point x="702.0" y="619.0" type="line" smooth="yes"/>
      <point x="611.0" y="321.0"/>
      <point x="415.0" y="102.0"/>
      <point x="303.0" y="102.0" type="curve" smooth="yes"/>
      <point x="260.0" y="102.0"/>
      <point x="243.0" y="119.0"/>
      <point x="243.0" y="150.0" type="curve" smooth="yes"/>
      <point x="243.0" y="169.0"/>
      <point x="249.0" y="192.0"/>
      <point x="259.0" y="220.0" type="curve" smooth="yes"/>
      <point x="481.0" y="817.0" type="line" smooth="yes"/>
      <point x="494.0" y="852.0"/>
      <point x="466.0" y="872.0"/>
      <point x="410.0" y="872.0" type="curve" smooth="yes"/>
      <point x="313.0" y="872.0"/>
      <point x="207.0" y="815.0"/>
      <point x="67.0" y="628.0" type="curve"/>
      <point x="100.0" y="598.0" type="line"/>
      <point x="187.0" y="690.0"/>
      <point x="292.0" y="743.0"/>
      <point x="361.0" y="740.0" type="curve"/>
      <point x="335.0" y="781.0" type="line"/>
      <point x="143.0" y="268.0" type="line" smooth="yes"/>
      <point x="115.0" y="194.0"/>
      <point x="101.0" y="138.0"/>
      <point x="101.0" y="95.0" type="curve" smooth="yes"/>
      <point x="101.0" y="24.0"/>
      <point x="140.0" y="-20.0"/>
      <point x="232.0" y="-20.0" type="curve" smooth="yes"/>
      <point x="349.0" y="-20.0"/>
      <point x="459.0" y="44.0"/>
      <point x="657.0" y="389.0" type="curve"/>
      <point x="650.0" y="389.0" type="line"/>
      <point x="541.0" y="35.0" type="line" smooth="yes"/>
      <point x="530.0" y="-2.0"/>
      <point x="552.0" y="-20.0"/>
      <point x="626.0" y="-20.0" type="curve" smooth="yes"/>
      <point x="662.0" y="-20.0"/>
      <point x="701.0" y="-12.0"/>
      <point x="744.0" y="10.0" type="curve"/>
      <point x="731.0" y="20.0" type="line"/>
      <point x="554.0" y="-126.0" type="line" smooth="yes"/>
      <point x="424.0" y="-234.0"/>
      <point x="382.0" y="-310.0"/>
      <point x="382.0" y="-393.0" type="curve" smooth="yes"/>
      <point x="382.0" y="-474.0"/>
      <point x="444.0" y="-530.0"/>
      <point x="526.0" y="-530.0" type="curve" smooth="yes"/>
      <point x="611.0" y="-530.0"/>
      <point x="671.0" y="-484.0"/>
      <point x="778.0" y="-370.0" type="curve"/>
      <point x="760.0" y="-344.0" type="line"/>
      <point x="674.0" y="-415.0"/>
      <point x="639.0" y="-430.0"/>
      <point x="598.0" y="-430.0" type="curve" smooth="yes"/>
      <point x="537.0" y="-430.0"/>
      <point x="500.0" y="-392.0"/>
      <point x="500.0" y="-333.0" type="curve" smooth="yes"/>
      <point x="500.0" y="-262.0"/>
      <point x="542.0" y="-199.0"/>
      <point x="644.0" y="-105.0" type="curve" smooth="yes"/>
      <point x="827.0" y="64.0" type="line" smooth="yes"/>
      <point x="889.0" y="122.0"/>
      <point x="930.0" y="165.0"/>
    </contour>
  </outline>
</glyph>
<glyph name="ohorn" format="2">
  <advance width="869"/>
  <unicode hex="01A1"/>
  <anchor x="533.0" y="852.0" name="top"/>
  <anchor x="293.0" y="0" name="bottom"/>
  <outline>
    <contour>
      <point x="322.0" y="47.0" type="curve" smooth="yes"/>
      <point x="239.0" y="47.0"/>
      <point x="203.0" y="106.0"/>
      <point x="203.0" y="232.0" type="curve" smooth="yes"/>
      <point x="203.0" y="493.0"/>
      <point x="355.0" y="805.0"/>
      <point x="525.0" y="805.0" type="curve" smooth="yes"/>
      <point x="608.0" y="805.0"/>
      <point x="644.0" y="746.0"/>
      <point x="644.0" y="620.0" type="curve" smooth="yes"/>
      <point x="644.0" y="359.0"/>
      <point x="492.0" y="47.0"/>
    </contour>
    <contour>
      <point x="785.0" y="580.0" type="curve" smooth="yes"/>
      <point x="785.0" y="682.0"/>
      <point x="755.0" y="765.0"/>
      <point x="692.0" y="817.0" type="curve"/>
      <point x="686.0" y="801.0" type="line"/>
      <point x="868.0" y="782.0"/>
      <point x="961.0" y="866.0"/>
      <point x="961.0" y="1006.0" type="curve" smooth="yes"/>
      <point x="961.0" y="1055.0"/>
      <point x="935.0" y="1086.0"/>
      <point x="887.0" y="1086.0" type="curve" smooth="yes"/>
      <point x="837.0" y="1086.0"/>
      <point x="803.0" y="1050.0"/>
      <point x="803.0" y="1002.0" type="curve" smooth="yes"/>
      <point x="803.0" y="980.0"/>
      <point x="810.0" y="964.0"/>
      <point x="810.0" y="942.0" type="curve" smooth="yes"/>
      <point x="810.0" y="892.0"/>
      <point x="787.0" y="851.0"/>
      <point x="700.0" y="851.0" type="curve" smooth="yes"/>
      <point x="635.0" y="851.0"/>
      <point x="584.0" y="872.0"/>
      <point x="527.0" y="872.0" type="curve" smooth="yes"/>
      <point x="264.0" y="872.0"/>
      <point x="62.0" y="583.0"/>
      <point x="62.0" y="272.0" type="curve" smooth="yes"/>
      <point x="62.0" y="87.0"/>
      <point x="161.0" y="-20.0"/>
      <point x="320.0" y="-20.0" type="curve" smooth="yes"/>
      <point x="583.0" y="-20.0"/>
      <point x="785.0" y="269.0"/>
    </contour>
  </outline>
</glyph>
<glyph name="uni01EA" format="2">
  <advance width="1479"/>
  <unicode hex="01EA"/>
  <outline>
    <contour>
      <point x="324.0" y="495.0" type="curve" smooth="yes"/>
      <point x="324.0" y="929.0"/>
      <point x="605.0" y="1275.0"/>
      <point x="931.0" y="1275.0" type="curve" smooth="yes"/>
      <point x="1171.0" y="1275.0"/>
      <point x="1302.0" y="1126.0"/>
      <point x="1302.0" y="845.0" type="curve" smooth="yes"/>
      <point x="1302.0" y="411.0"/>
      <point x="1021.0" y="65.0"/>
      <point x="695.0" y="65.0" type="curve" smooth="yes"/>
      <point x="455.0" y="65.0"/>
      <point x="324.0" y="214.0"/>
    </contour>
    <contour>
      <point x="1464.0" y="818.0" type="curve" smooth="yes"/>
      <point x="1464.0" y="1159.0"/>
      <point x="1260.0" y="1360.0"/>
      <point x="936.0" y="1360.0" type="curve" smooth="yes"/>
      <point x="497.0" y="1360.0"/>
      <point x="162.0" y="969.0"/>
      <point x="162.0" y="522.0" type="curve" smooth="yes"/>
      <point x="162.0" y="181.0"/>
      <point x="366.0" y="-20.0"/>
      <point x="690.0" y="-20.0" type="curve" smooth="yes"/>
      <point x="1129.0" y="-20.0"/>
      <point x="1464.0" y="371.0"/>
    </contour>
    <contour>
      <point x="436.0" y="-346.0" type="curve" smooth="yes"/>
      <point x="436.0" y="-295.0"/>
      <point x="466.0" y="-223.0"/>
      <point x="539.0" y="-136.0" type="curve" smooth="yes"/>
      <point x="690.0" y="46.0" type="line"/>
      <point x="639.0" y="46.0" type="line"/>
      <point x="450.0" y="-159.0" type="line" smooth="yes"/>
      <point x="349.0" y="-269.0"/>
      <point x="319.0" y="-345.0"/>
      <point x="319.0" y="-406.0" type="curve" smooth="yes"/>
      <point x="319.0" y="-484.0"/>
      <point x="373.0" y="-530.0"/>
      <point x="451.0" y="-530.0" type="curve" smooth="yes"/>
      <point x="536.0" y="-530.0"/>
      <point x="596.0" y="-484.0"/>
      <point x="703.0" y="-370.0" type="curve"/>
      <point x="685.0" y="-344.0" type="line"/>
      <point x="599.0" y="-415.0"/>
      <point x="564.0" y="-430.0"/>
      <point x="523.0" y="-430.0" type="curve" smooth="yes"/>
      <point x="470.0" y="-430.0"/>
      <point x="436.0" y="-400.0"/>
    </contour>
  </outline>
</glyph>
<glyph name="uni0237" format="2">
  <advance width="481"/>
  <unicode hex="0237"/>
  <anchor x="338.0" y="852.0" name="top"/>
  <anchor x="-68.0" y="-510" name="bottom"/>
  <outline>
    <contour>
      <point x="217" y="15" type="curve" smooth="yes"/>
      <point x="456" y="817" type="line" smooth="yes"/>
      <point x="466" y="852"/>
      <point x="441" y="872"/>
      <point x="390" y="872" type="curve" smooth="yes"/>
      <point x="286" y="872"/>
      <point x="184" y="802"/>
      <point x="61" y="627" type="curve"/>
      <point x="91" y="598" type="line"/>
      <point x="171" y="687"/>
      <point x="269" y="741"/>
      <point x="334" y="739" type="curve"/>
      <point x="305" y="761" type="line"/>
      <point x="62" y="-48" type="line" smooth="yes"/>
      <point x="-28" y="-347"/>
      <point x="-117" y="-423"/>
      <point x="-212" y="-423" type="curve" smooth="yes"/>
      <point x="-246.0" y="-423.0"/>
      <point x="-278" y="-406"/>
      <point x="-309" y="-373" type="curve" smooth="yes"/>
      <point x="-340.0" y="-340.0"/>
      <point x="-354.0" y="-329.0"/>
      <point x="-366" y="-329" type="curve" smooth="yes"/>
      <point x="-408" y="-329"/>
      <point x="-446" y="-368"/>
      <point x="-446" y="-421" type="curve" smooth="yes"/>
      <point x="-446" y="-481"/>
      <point x="-400" y="-530"/>
      <point x="-313" y="-530" type="curve" smooth="yes"/>
      <point x="-121" y="-530"/>
      <point x="113" y="-334"/>
    </contour>
  </outline>
</glyph>
<glyph name="uni02B9" format="2">
  <advance width="386"/>
  <unicode hex="02B9"/>
  <outline>
    <contour>
      <point x="222.0" y="861.0" type="line"/>
      <point x="289.0" y="861.0" type="line"/>
      <point x="592.0" y="1305.0" type="line"/>
      <point x="602.0" y="1340.0" type="line"/>
      <point x="416.0" y="1340.0" type="line"/>
    </contour>
  </outline>
</glyph>
<glyph name="tildecomb" format="2">
  <unicode hex="0303"/>
  <anchor x="130" y="852.0" name="_top"/>
  <anchor x="252" y="1255" name="top"/>
  <outline>
    <contour>
      <point x="507.0" y="1326.0" type="curve"/>
      <point x="446.0" y="1326.0" type="line"/>
      <point x="392.0" y="1185.0"/>
      <point x="362.0" y="1157.0"/>
      <point x="334.0" y="1157.0" type="curve" smooth="yes"/>
      <point x="276.0" y="1157.0"/>
      <point x="250.0" y="1336.0"/>
      <point x="165.0" y="1336.0" type="curve" smooth="yes"/>
      <point x="87.0" y="1336.0"/>
      <point x="32.0" y="1246.0"/>
      <point x="-49.0" y="1023.0" type="curve"/>
      <point x="12.0" y="1023.0" type="line"/>
      <point x="66.0" y="1164.0"/>
      <point x="96.0" y="1192.0"/>
      <point x="124.0" y="1192.0" type="curve" smooth="yes"/>
      <point x="182.0" y="1192.0"/>
      <point x="208.0" y="1013.0"/>
      <point x="293.0" y="1013.0" type="curve" smooth="yes"/>
      <point x="371.0" y="1013.0"/>
      <point x="426.0" y="1103.0"/>
    </contour>
  </outline>
</glyph>
<glyph name="uni0307" format="2">
  <unicode hex="0307"/>
  <anchor x="130" y="852.0" name="_top"/>
  <anchor x="229" y="1175" name="_mid"/>
  <anchor x="252" y="1255" name="top"/>
  <outline>
    <contour>
      <point x="229.0" y="1058.0" type="curve" smooth="yes"/>
      <point x="299.0" y="1058.0"/>
      <point x="347.0" y="1109.0"/>
      <point x="347.0" y="1175.0" type="curve" smooth="yes"/>
      <point x="347.0" y="1241.0"/>
      <point x="299.0" y="1292.0"/>
      <point x="229.0" y="1292.0" type="curve" smooth="yes"/>
      <point x="159.0" y="1292.0"/>
      <point x="111.0" y="1241.0"/>
      <point x="111.0" y="1175.0" type="curve" smooth="yes"/>
      <point x="111.0" y="1109.0"/>
      <point x="159.0" y="1058.0"/>
    </contour>
  </outline>
</glyph>
<glyph name="uni0312" format="2">
  <unicode hex="0312"/>
  <anchor x="130" y="852.0" name="_top"/>
  <anchor x="285" y="1360" name="top"/>
  <outline>
    <contour>
      <point x="319.0" y="1115.0" type="curve" smooth="yes"/>
      <point x="319.0" y="1141.0"/>
      <point x="220.0" y="1145.0"/>
      <point x="220.0" y="1192.0" type="curve" smooth="yes"/>
      <point x="220.0" y="1231.0"/>
      <point x="246.0" y="1277.0"/>
      <point x="392.0" y="1305.0" type="curve"/>
      <point x="397.0" y="1360.0" type="line"/>
      <point x="163.0" y="1322.0"/>
      <point x="87.0" y="1220.0"/>
      <point x="87.0" y="1111.0" type="curve" smooth="yes"/>
      <point x="87.0" y="1040.0"/>
      <point x="130.0" y="999.0"/>
      <point x="198.0" y="999.0" type="curve" smooth="yes"/>
      <point x="261.0" y="999.0"/>
      <point x="319.0" y="1048.0"/>
    </contour>
  </outline>
</glyph>
<glyph name="dotbelowcomb" format="2">
  <unicode hex="0323"/>
  <anchor x="-130" y="0" name="_bottom"/>
  <anchor x="-292" y="-530.0" name="bottom"/>
  <outline>
    <contour>
      <point x="-208.0" y="-372.0" type="curve" smooth="yes"/>
      <point x="-138.0" y="-372.0"/>
      <point x="-90.0" y="-321.0"/>
      <point x="-90.0" y="-255.0" type="curve" smooth="yes"/>
      <point x="-90.0" y="-189.0"/>
      <point x="-138.0" y="-138.0"/>
      <point x="-208.0" y="-138.0" type="curve" smooth="yes"/>
      <point x="-278.0" y="-138.0"/>
      <point x="-326.0" y="-189.0"/>
      <point x="-326.0" y="-255.0" type="curve" smooth="yes"/>
      <point x="-326.0" y="-321.0"/>
      <point x="-278.0" y="-372.0"/>
    </contour>
  </outline>
</glyph>
<glyph name="uni0324" format="2">
  <unicode hex="0324"/>
  <anchor x="-130" y="0" name="_bottom"/>
  <anchor x="-289" y="-530.0" name="bottom"/>
  <outline>
    <contour>
      <point x="-378.0" y="-364.0" type="curve" smooth="yes"/>
      <point x="-313.0" y="-364.0"/>
      <point x="-268.0" y="-315.0"/>
      <point x="-268.0" y="-255.0" type="curve" smooth="yes"/>
      <point x="-268.0" y="-195.0"/>
      <point x="-313.0" y="-146.0"/>
      <point x="-378.0" y="-146.0" type="curve" smooth="yes"/>
      <point x="-443.0" y="-146.0"/>
      <point x="-488.0" y="-195.0"/>
      <point x="-488.0" y="-255.0" type="curve" smooth="yes"/>
      <point x="-488.0" y="-315.0"/>
      <point x="-443.0" y="-364.0"/>
    </contour>
    <contour>
      <point x="-32.0" y="-364.0" type="curve" smooth="yes"/>
      <point x="33.0" y="-364.0"/>
      <point x="78.0" y="-315.0"/>
      <point x="78.0" y="-255.0" type="curve" smooth="yes"/>
      <point x="78.0" y="-195.0"/>
      <point x="33.0" y="-146.0"/>
      <point x="-32.0" y="-146.0" type="curve" smooth="yes"/>
      <point x="-97.0" y="-146.0"/>
      <point x="-142.0" y="-195.0"/>
      <point x="-142.0" y="-255.0" type="curve" smooth="yes"/>
      <point x="-142.0" y="-315.0"/>
      <point x="-97.0" y="-364.0"/>
    </contour>
  </outline>
</glyph>
<glyph name="uni0331" format="2">
  <unicode hex="0331"/>
  <anchor x="-130" y="0" name="_bottom"/>
  <anchor x="-292" y="-530.0" name="bottom"/>
  <outline>
    <contour>
      <point x="-458.0" y="-305.0" type="line"/>
      <point x="17.0" y="-305.0" type="line"/>
      <point x="48.0" y="-205.0" type="line"/>
      <point x="-427.0" y="-205.0" type="line"/>
    </contour>
  </outline>
</glyph>
<glyph name="uni0335" format="2">
  <unicode hex="0335"/>
  <anchor x="199" y="1078" name="_center"/>
  <outline>
    <contour>
      <point x="-95.0" y="1035.0" type="line"/>
      <point x="468.0" y="1035.0" type="line"/>
      <point x="495.0" y="1121.0" type="line"/>
      <point x="-69.0" y="1121.0" type="line"/>
    </contour>
  </outline>
</glyph>
<glyph name="daggerdbl" format="2">
  <advance width="739"/>
  <unicode hex="2021"/>
  <outline>
    <contour>
      <point x="596.0" y="1184.0" type="line"/>
      <point x="372.0" y="1227.0" type="line"/>
      <point x="330.0" y="1090.0" type="line"/>
      <point x="581.0" y="1133.0" type="line"/>
      <point x="805.0" y="1090.0" type="line"/>
      <point x="847.0" y="1227.0" type="line"/>
    </contour>
    <contour>
      <point x="608.0" y="1025.0" type="line"/>
      <point x="613.0" y="1158.0" type="line"/>
      <point x="730.0" y="1399.0" type="line"/>
      <point x="594.0" y="1399.0" type="line"/>
      <point x="563.0" y="1158.0" type="line"/>
      <point x="487.0" y="1025.0" type="line"/>
      <point x="481.0" y="892.0" type="line"/>
      <point x="365.0" y="651.0" type="line"/>
      <point x="502.0" y="651.0" type="line"/>
      <point x="532.0" y="892.0" type="line"/>
    </contour>
    <contour>
      <point x="499.0" y="866.0" type="line"/>
      <point x="723.0" y="823.0" type="line"/>
      <point x="765.0" y="960.0" type="line"/>
      <point x="515.0" y="917.0" type="line"/>
      <point x="290.0" y="960.0" type="line"/>
      <point x="248.0" y="823.0" type="line"/>
    </contour>
  </outline>
</glyph>
<glyph name="minute" format="2">
  <advance width="401"/>
  <unicode hex="2032"/>
  <outline>
    <contour>
      <point x="235.0" y="861.0" type="line"/>
      <point x="302.0" y="861.0" type="line"/>
      <point x="605.0" y="1305.0" type="line"/>
      <point x="615.0" y="1340.0" type="line"/>
      <point x="429.0" y="1340.0" type="line"/>
    </contour>
  </outline>
</glyph>
<glyph name="guilsinglright" format="2">
  <advance width="608"/>
  <unicode hex="203A"/>
  <outline>
    <contour>
      <point x="351.0" y="357.0" type="line"/>
      <point x="406.0" y="535.0" type="line"/>
      <point x="-21.0" y="70.0" type="line"/>
      <point x="15.0" y="25.0" type="line"/>
      <point x="515.0" y="413.0" type="line"/>
      <point x="526.0" y="449.0" type="line"/>
      <point x="263.0" y="837.0" type="line"/>
      <point x="214.0" y="816.0" type="line"/>
    </contour>
  </outline>
</glyph>
<glyph name="uni2074" format="2">
  <advance width="680"/>
  <unicode hex="2074"/>
  <outline>
    <contour>
      <point x="604.0" y="1284.0" type="line"/>
      <point x="411.0" y="653.0" type="line"/>
      <point x="295.0" y="623.0" type="line"/>
      <point x="286.0" y="592.0" type="line"/>
      <point x="614.0" y="592.0" type="line"/>
      <point x="624.0" y="623.0" type="line"/>
      <point x="533.0" y="653.0" type="line"/>
      <point x="745.0" y="1345.0" type="line"/>
      <point x="655.0" y="1345.0" type="line"/>
      <point x="161.0" y="862.0" type="line"/>
      <point x="143.0" y="808.0" type="line"/>
      <point x="719.0" y="808.0" type="line"/>
      <point x="798.0" y="938.0" type="line"/>
      <point x="661.0" y="909.0" type="line"/>
      <point x="239.0" y="909.0" type="line"/>
      <point x="243.0" y="881.0" type="line"/>
      <point x="650.0" y="1263.0" type="line"/>
    </contour>
  </outline>
</glyph>
<glyph name="uni27E8" format="2">
  <advance width="1000"/>
  <unicode hex="27E8"/>
  <guideline x="900.0" y="1340" angle="178.17062183891014" identifier="4Edg2K3xci"/>
  <outline>
    <contour>
      <point x="351.0" y="637.0" type="line"/>
      <point x="1080.0" y="1340.0" type="line"/>
      <point x="970.0" y="1340.0" type="line"/>
      <point x="277.0" y="675.0" type="line"/>
      <point x="274.0" y="664.0" type="line"/>
      <point x="586.0" y="0.0" type="line"/>
      <point x="671.0" y="0.0" type="line"/>
      <point x="360.0" y="681.0" type="line"/>
    </contour>
  </outline>
</glyph>
<glyph name="f_f_i" format="2">
  <advance width="1501"/>
  <unicode hex="FB03"/>
  <outline>
    <contour>
      <point x="323.0" y="872.0" type="curve" smooth="yes"/>
      <point x="165.0" y="66.0" type="line" smooth="yes"/>
      <point x="83" y="-350"/>
      <point x="2.0" y="-437.0"/>
      <point x="-110.0" y="-437.0" type="curve" smooth="yes"/>
      <point x="-144.0" y="-437.0"/>
      <point x="-179.0" y="-422.0"/>
      <point x="-208.0" y="-387.0" type="curve" smooth="yes"/>
      <point x="-237.0" y="-352.0"/>
      <point x="-260.0" y="-326.0"/>
      <point x="-286.0" y="-326.0" type="curve" smooth="yes"/>
      <point x="-331.0" y="-326.0"/>
      <point x="-365.0" y="-370.0"/>
      <point x="-365.0" y="-413.0" type="curve" smooth="yes"/>
      <point x="-365.0" y="-481.0"/>
      <point x="-307.0" y="-530.0"/>
      <point x="-191.0" y="-530.0" type="curve" smooth="yes"/>
      <point x="36.0" y="-530.0"/>
      <point x="217" y="-349"/>
      <point x="324.0" y="193.0" type="curve" smooth="yes"/>
      <point x="482.0" y="997.0" type="line" smooth="yes"/>
      <point x="525.0" y="1215.0"/>
      <point x="614.0" y="1319.0"/>
      <point x="761.0" y="1319.0" type="curve" smooth="yes"/>
      <point x="858.0" y="1319.0"/>
      <point x="920.0" y="1275.0"/>
      <point x="959.0" y="1207.0" type="curve"/>
      <point x="1065.0" y="1316.0" type="line"/>
      <point x="1018.0" y="1366.0"/>
      <point x="938.0" y="1399.0"/>
      <point x="835.0" y="1399.0" type="curve" smooth="yes"/>
      <point x="572.0" y="1399.0"/>
      <point x="389.0" y="1210.0"/>
    </contour>
    <contour>
      <point x="795.0" y="892.0" type="curve" smooth="yes"/>
      <point x="623.0" y="11.0" type="line" smooth="yes"/>
      <point x="558" y="-320"/>
      <point x="448.0" y="-407.0"/>
      <point x="287.0" y="-407.0" type="curve" smooth="yes"/>
      <point x="228.0" y="-407.0"/>
      <point x="168.0" y="-370.0"/>
      <point x="130.0" y="-308.0" type="curve"/>
      <point x="30.0" y="-392.0" type="line"/>
      <point x="45.0" y="-447.0"/>
      <point x="123.0" y="-500.0"/>
      <point x="243.0" y="-500.0" type="curve" smooth="yes"/>
      <point x="480.0" y="-500.0"/>
      <point x="694" y="-306"/>
      <point x="798.0" y="223.0" type="curve" smooth="yes"/>
      <point x="954.0" y="1017.0" type="line" smooth="yes"/>
      <point x="997" y="1235"/>
      <point x="1086.0" y="1339.0"/>
      <point x="1233.0" y="1339.0" type="curve" smooth="yes"/>
      <point x="1292.0" y="1339.0"/>
      <point x="1338.0" y="1310.0"/>
      <point x="1375.0" y="1258.0" type="curve" smooth="yes"/>
      <point x="1412.0" y="1206.0"/>
      <point x="1434.0" y="1193.0"/>
      <point x="1452.0" y="1193.0" type="curve" smooth="yes"/>
      <point x="1510.0" y="1193.0"/>
      <point x="1545.0" y="1232.0"/>
      <point x="1545.0" y="1280.0" type="curve" smooth="yes"/>
      <point x="1545.0" y="1359.0"/>
      <point x="1465.0" y="1419.0"/>
      <point x="1316.0" y="1419.0" type="curve" smooth="yes"/>
      <point x="1044.0" y="1419.0"/>
      <point x="861" y="1230"/>
    </contour>
    <contour>
      <point x="107.0" y="772.0" type="line"/>
      <point x="1371.0" y="772.0" type="line"/>
      <point x="1287.0" y="798.0" type="line"/>
      <point x="1035.0" y="35.0" type="line" smooth="yes"/>
      <point x="1023.0" y="-1.0"/>
      <point x="1046.0" y="-20.0"/>
      <point x="1120.0" y="-20.0" type="curve" smooth="yes"/>
      <point x="1209.0" y="-20.0"/>
      <point x="1311.0" y="30.0"/>
      <point x="1452.0" y="195.0" type="curve"/>
      <point x="1424.0" y="227.0" type="line"/>
      <point x="1336.0" y="146.0"/>
      <point x="1234.0" y="101.0"/>
      <point x="1169.0" y="109.0" type="curve"/>
      <point x="1186.0" y="71.0" type="line"/>
      <point x="1443.0" y="872.0" type="line"/>
      <point x="1425.0" y="872.0" type="line"/>
      <point x="1381.0" y="860.0"/>
      <point x="1315.0" y="852.0"/>
      <point x="1244.0" y="852.0" type="curve" smooth="yes"/>
      <point x="122.0" y="852.0" type="line"/>
    </contour>
  </outline>
</glyph>
<glyph name="cent.lf" format="2">
  <advance width="799"/>
  <outline>
    <contour>
      <point x="39.0" y="0.0" type="line"/>
      <point x="123.0" y="0.0" type="line"/>
      <point x="954.0" y="1340.0" type="line"/>
      <point x="870.0" y="1340.0" type="line"/>
    </contour>
    <contour>
      <point x="569" y="1034" type="curve" smooth="yes"/>
      <point x="610" y="1034"/>
      <point x="644" y="1003"/>
      <point x="673" y="971" type="curve" smooth="yes"/>
      <point x="702" y="939"/>
      <point x="726" y="906"/>
      <point x="746" y="907" type="curve" smooth="yes"/>
      <point x="793" y="908"/>
      <point x="827" y="933"/>
      <point x="827" y="985" type="curve" smooth="yes"/>
      <point x="827" y="1051"/>
      <point x="769" y="1112"/>
      <point x="650" y="1112" type="curve" smooth="yes"/>
      <point x="390" y="1112"/>
      <point x="168" y="830"/>
      <point x="168" y="480" type="curve" smooth="yes"/>
      <point x="168" y="304"/>
      <point x="250" y="220"/>
      <point x="396" y="220" type="curve" smooth="yes"/>
      <point x="530" y="220"/>
      <point x="623" y="288"/>
      <point x="728" y="516" type="curve"/>
      <point x="674" y="516" type="line"/>
      <point x="599" y="377"/>
      <point x="523" y="333"/>
      <point x="441" y="333" type="curve" smooth="yes"/>
      <point x="356" y="333"/>
      <point x="313" y="384"/>
      <point x="313" y="522" type="curve" smooth="yes"/>
      <point x="313" y="752"/>
      <point x="422" y="1034"/>
    </contour>
  </outline>
</glyph>
<glyph name="colonmonetary.lf" format="2">
  <advance width="1057"/>
  <outline>
    <contour>
      <point x="249.0" y="-195.0" type="line"/>
      <point x="332.0" y="-195.0" type="line"/>
      <point x="1226.0" y="1535.0" type="line"/>
      <point x="1142.0" y="1535.0" type="line"/>
    </contour>
    <contour>
      <point x="6.0" y="-195.0" type="line"/>
      <point x="89.0" y="-195.0" type="line"/>
      <point x="983.0" y="1535.0" type="line"/>
      <point x="900.0" y="1535.0" type="line"/>
    </contour>
    <contour>
      <point x="821.0" y="1286.0" type="curve" smooth="yes"/>
      <point x="998.0" y="1286.0"/>
      <point x="966.0" y="1116.0"/>
      <point x="1075.0" y="1116.0" type="curve" smooth="yes"/>
      <point x="1122.0" y="1116.0"/>
      <point x="1160.0" y="1149.0"/>
      <point x="1160.0" y="1198.0" type="curve" smooth="yes"/>
      <point x="1160.0" y="1268.0"/>
      <point x="1080.0" y="1360.0"/>
      <point x="868.0" y="1360.0" type="curve" smooth="yes"/>
      <point x="487.0" y="1360.0"/>
      <point x="162.0" y="911.0"/>
      <point x="162.0" y="430.0" type="curve" smooth="yes"/>
      <point x="162.0" y="140.0"/>
      <point x="303.9394479268318" y="-18.0"/>
      <point x="540.0" y="-18.0" type="curve" smooth="yes"/>
      <point x="656.0" y="-18.0"/>
      <point x="773.0" y="48.0"/>
      <point x="919.0" y="165.0" type="curve"/>
      <point x="895.0" y="203.0" type="line"/>
      <point x="802.0" y="144.0"/>
      <point x="715.0" y="108.0"/>
      <point x="623.0" y="108.0" type="curve" smooth="yes"/>
      <point x="433.0" y="108.0"/>
      <point x="300.0" y="195.0"/>
      <point x="300.0" y="481.0" type="curve" smooth="yes"/>
      <point x="300.0" y="907.0"/>
      <point x="544.0" y="1286.0"/>
    </contour>
  </outline>
</glyph>
<glyph name="dong.lf" format="2">
  <advance width="1067"/>
  <outline>
    <contour>
      <point x="792.0" y="-248.0" type="line"/>
      <point x="-99.0" y="-248.0" type="line"/>
      <point x="-123.0" y="-326.0" type="line"/>
      <point x="768.0" y="-326.0" type="line"/>
    </contour>
    <contour>
      <point x="727.0" y="730.0" type="curve"/>
      <point x="767.0" y="785.0" type="line"/>
      <point x="725.0" y="839.0"/>
      <point x="680.0" y="867.0"/>
      <point x="603.0" y="867.0" type="curve" smooth="yes"/>
      <point x="301.0" y="867.0"/>
      <point x="39.0" y="437.0"/>
      <point x="39.0" y="183.0" type="curve" smooth="yes"/>
      <point x="39.0" y="40.0"/>
      <point x="108.0" y="-17.0"/>
      <point x="217.0" y="-17.0" type="curve" smooth="yes"/>
      <point x="322.0" y="-17.0"/>
      <point x="441.0" y="68.0"/>
      <point x="643.0" y="367.0" type="curve"/>
      <point x="617.0" y="367.0" type="line"/>
      <point x="513.0" y="45.0" type="line" smooth="yes"/>
      <point x="500.0" y="6.0"/>
      <point x="528.0" y="-20.0"/>
      <point x="585.0" y="-20.0" type="curve" smooth="yes"/>
      <point x="674.0" y="-20.0"/>
      <point x="773.0" y="35.0"/>
      <point x="917.0" y="195.0" type="curve"/>
      <point x="889.0" y="227.0" type="line"/>
      <point x="801.0" y="146.0"/>
      <point x="700.0" y="98.0"/>
      <point x="634.0" y="109.0" type="curve"/>
      <point x="651.0" y="71.0" type="line"/>
      <point x="1068.0" y="1419.0" type="line"/>
      <point x="1045.0" y="1419.0" type="line"/>
      <point x="776.0" y="1370.0" type="line"/>
      <point x="768.0" y="1345.0" type="line"/>
      <point x="825.0" y="1324.0"/>
      <point x="854.0" y="1302.0"/>
      <point x="890.0" y="1268.0" type="curve"/>
      <point x="649.0" y="487.0" type="line" smooth="yes"/>
      <point x="585.0" y="279.0"/>
      <point x="369.0" y="103.0"/>
      <point x="272.0" y="103.0" type="curve" smooth="yes"/>
      <point x="223.0" y="103.0"/>
      <point x="187.0" y="132.0"/>
      <point x="187.0" y="191.0" type="curve" smooth="yes"/>
      <point x="187.0" y="357.0"/>
      <point x="376.0" y="794.0"/>
      <point x="622.0" y="794.0" type="curve" smooth="yes"/>
      <point x="679.0" y="794.0"/>
      <point x="716.0" y="762.0"/>
    </contour>
    <contour>
      <point x="549.0" y="1029.0" type="line"/>
      <point x="1112.0" y="1029.0" type="line"/>
      <point x="1139.0" y="1115.0" type="line"/>
      <point x="575.0" y="1115.0" type="line"/>
    </contour>
  </outline>
</glyph>
<glyph name="five.lf" format="2">
  <advance width="954"/>
  <outline>
    <contour>
      <point x="509.0" y="1206.0" type="line"/>
      <point x="1052.0" y="1206.0" type="line"/>
      <point x="1155.0" y="1378.0" type="line"/>
      <point x="902.0" y="1340.0" type="line"/>
      <point x="530.0" y="1340.0" type="line"/>
      <point x="257.0" y="782.0" type="line"/>
      <point x="625.0" y="711.0"/>
      <point x="716.0" y="589.0"/>
      <point x="716.0" y="443.0" type="curve" smooth="yes"/>
      <point x="716.0" y="210.0"/>
      <point x="548.0" y="56.0"/>
      <point x="342.0" y="56.0" type="curve" smooth="yes"/>
      <point x="158.0" y="56.0"/>
      <point x="167.0" y="205.0"/>
      <point x="57.0" y="205.0" type="curve" smooth="yes"/>
      <point x="5.0" y="205.0"/>
      <point x="-30.0" y="174.0"/>
      <point x="-30.0" y="124.0" type="curve" smooth="yes"/>
      <point x="-30.0" y="33.0"/>
      <point x="104.0" y="-20.0"/>
      <point x="274.0" y="-20.0" type="curve" smooth="yes"/>
      <point x="595.0" y="-20.0"/>
      <point x="848.0" y="177.0"/>
      <point x="848.0" y="496.0" type="curve" smooth="yes"/>
      <point x="848.0" y="672.0"/>
      <point x="738.0" y="822.0"/>
      <point x="381.0" y="905.0" type="curve"/>
      <point x="356.0" y="821.0" type="line"/>
      <point x="549.0" y="1235.0" type="line"/>
    </contour>
  </outline>
</glyph>
<glyph name="florin.lf" format="2">
  <advance width="1010"/>
  <outline>
    <contour>
      <point x="204.0" y="637.0" type="line"/>
      <point x="926.0" y="637.0" type="line"/>
      <point x="926.0" y="709.0" type="line"/>
      <point x="204.0" y="709.0" type="line"/>
    </contour>
    <contour>
      <point x="84.0" y="-270.0" type="curve" smooth="yes"/>
      <point x="306.0" y="-270.0"/>
      <point x="503.0" y="-91.0"/>
      <point x="587.0" y="453.0" type="curve" smooth="yes"/>
      <point x="655.0" y="892.0" type="line" smooth="yes"/>
      <point x="702.0" y="1193.0"/>
      <point x="762.0" y="1257.0"/>
      <point x="897.0" y="1257.0" type="curve" smooth="yes"/>
      <point x="1021.0" y="1257.0"/>
      <point x="1055.0" y="1150.0"/>
      <point x="1111.0" y="1150.0" type="curve" smooth="yes"/>
      <point x="1160.0" y="1150.0"/>
      <point x="1196.0" y="1182.0"/>
      <point x="1196.0" y="1230.0" type="curve" smooth="yes"/>
      <point x="1196.0" y="1296.0"/>
      <point x="1129.0" y="1351.0"/>
      <point x="1003.0" y="1351.0" type="curve" smooth="yes"/>
      <point x="780.0" y="1351.0"/>
      <point x="566.0" y="1206.0"/>
      <point x="501.0" y="792.0" type="curve" smooth="yes"/>
      <point x="428.0" y="326.0" type="line" smooth="yes"/>
      <point x="362.0" y="-96.0"/>
      <point x="275.0" y="-177.0"/>
      <point x="172.0" y="-177.0" type="curve" smooth="yes"/>
      <point x="62.0" y="-177.0"/>
      <point x="32.0" y="-79.0"/>
      <point x="-18.0" y="-79.0" type="curve" smooth="yes"/>
      <point x="-65.0" y="-79.0"/>
      <point x="-99.0" y="-109.0"/>
      <point x="-99.0" y="-155.0" type="curve" smooth="yes"/>
      <point x="-99.0" y="-218.0"/>
      <point x="-36.0" y="-270.0"/>
    </contour>
  </outline>
</glyph>
<glyph name="four.lf" format="2">
  <advance width="1109"/>
  <outline>
    <contour>
      <point x="866.0" y="1208.0" type="line"/>
      <point x="523.0" y="86.0" type="line"/>
      <point x="331.0" y="38.0" type="line"/>
      <point x="319.0" y="0.0" type="line"/>
      <point x="814.0" y="0.0" type="line"/>
      <point x="826.0" y="38.0" type="line"/>
      <point x="666.0" y="83.0" type="line"/>
      <point x="1057.0" y="1360.0" type="line"/>
      <point x="974.0" y="1360.0" type="line"/>
      <point x="19.0" y="443.0" type="line"/>
      <point x="9.0" y="412.0" type="line"/>
      <point x="1035.0" y="412.0" type="line"/>
      <point x="1130.0" y="564.0" type="line"/>
      <point x="945.0" y="536.0" type="line"/>
      <point x="154.0" y="536.0" type="line"/>
      <point x="165.0" y="502.0" type="line"/>
      <point x="949.0" y="1240.0" type="line"/>
    </contour>
  </outline>
</glyph>
<glyph name="nine.lf" format="2">
  <advance width="1039"/>
  <outline>
    <contour>
      <point x="62.0" y="-47.0" type="line"/>
      <point x="874.0" y="196.0"/>
      <point x="1072.0" y="545.0"/>
      <point x="1072.0" y="943.0" type="curve" smooth="yes"/>
      <point x="1072.0" y="1203.0"/>
      <point x="921.0" y="1360.0"/>
      <point x="674.0" y="1360.0" type="curve" smooth="yes"/>
      <point x="426.0" y="1360.0"/>
      <point x="216.0" y="1168.0"/>
      <point x="216.0" y="894.0" type="curve" smooth="yes"/>
      <point x="216.0" y="710.0"/>
      <point x="333.0" y="592.0"/>
      <point x="542.0" y="592.0" type="curve" smooth="yes"/>
      <point x="657.0" y="592.0"/>
      <point x="775.0" y="633.0"/>
      <point x="985.0" y="773.0" type="curve"/>
      <point x="942.0" y="798.0" type="line"/>
      <point x="823.0" y="724.0"/>
      <point x="721.0" y="696.0"/>
      <point x="615.0" y="696.0" type="curve" smooth="yes"/>
      <point x="441.0" y="696.0"/>
      <point x="361.0" y="777.0"/>
      <point x="361.0" y="934.0" type="curve" smooth="yes"/>
      <point x="361.0" y="1155.0"/>
      <point x="496.0" y="1289.0"/>
      <point x="669.0" y="1289.0" type="curve" smooth="yes"/>
      <point x="818.0" y="1289.0"/>
      <point x="934.0" y="1197.7214695706148"/>
      <point x="934.0" y="934.0" type="curve" smooth="yes"/>
      <point x="934.0" y="575.0"/>
      <point x="736.0" y="213.0"/>
      <point x="41.0" y="12.0" type="curve"/>
    </contour>
  </outline>
</glyph>
<glyph name="one.lf" format="2">
  <advance width="687"/>
  <outline>
    <contour>
      <point x="198.0" y="86.0" type="line"/>
      <point x="6.0" y="38.0" type="line"/>
      <point x="-6.0" y="0.0" type="line"/>
      <point x="489.0" y="0.0" type="line"/>
      <point x="501.0" y="38.0" type="line"/>
      <point x="341.0" y="83.0" type="line"/>
      <point x="732.0" y="1360.0" type="line"/>
      <point x="707.0" y="1360.0" type="line"/>
      <point x="238.0" y="1123.0" type="line"/>
      <point x="252.0" y="1085.0" type="line"/>
      <point x="590.0" y="1175.0" type="line"/>
      <point x="554.0" y="1249.0" type="line"/>
    </contour>
  </outline>
</glyph>
<glyph name="peseta.lf" format="2">
  <advance width="1571"/>
  <outline>
    <contour>
      <point x="822.0" y="195.0" type="curve" smooth="yes"/>
      <point x="1074.0" y="1020.0" type="line"/>
      <point x="1019.0" y="1020.0" type="line"/>
      <point x="968.0" y="921.0"/>
      <point x="928.0" y="878.0"/>
      <point x="832.0" y="840.0" type="curve"/>
      <point x="813.0" y="778.0" type="line"/>
      <point x="877.0" y="778.0" type="line"/>
      <point x="703.0" y="209.0" type="line" smooth="yes"/>
      <point x="651.0" y="39.0"/>
      <point x="706.0" y="-16.0"/>
      <point x="781.0" y="-16.0" type="curve" smooth="yes"/>
      <point x="820.0" y="-16.0"/>
      <point x="872.0" y="1.0"/>
      <point x="952.0" y="64.0" type="curve"/>
      <point x="967.0" y="113.0" type="line"/>
      <point x="925.0" y="98.0"/>
      <point x="892.0" y="96.0"/>
      <point x="866.0" y="96.0" type="curve" smooth="yes"/>
      <point x="807.0" y="96.0"/>
      <point x="801.0" y="127.0"/>
    </contour>
    <contour>
      <point x="967.0" y="778.0" type="line"/>
      <point x="1144.0" y="778.0" type="line"/>
      <point x="1185.0" y="884.0" type="line"/>
      <point x="999.0" y="884.0" type="line"/>
    </contour>
    <contour>
      <point x="489.0" y="1269.0" type="line"/>
      <point x="121.0" y="71.0" type="line"/>
      <point x="14.0" y="33.0" type="line"/>
      <point x="4.0" y="0.0" type="line"/>
      <point x="329.0" y="0.0" type="line"/>
      <point x="339.0" y="33.0" type="line"/>
      <point x="254.0" y="71.0" type="line"/>
      <point x="643.0" y="1340.0" type="line"/>
      <point x="414.0" y="1340.0" type="line"/>
      <point x="404.0" y="1307.0" type="line"/>
    </contour>
    <contour>
      <point x="1447.0" y="905.0" type="curve" smooth="yes"/>
      <point x="1252.0" y="905.0"/>
      <point x="1160.0" y="772.0"/>
      <point x="1160.0" y="613.0" type="curve" smooth="yes"/>
      <point x="1160.0" y="463.0"/>
      <point x="1279.0" y="389.0"/>
      <point x="1279.0" y="253.0" type="curve" smooth="yes"/>
      <point x="1279.0" y="125.0"/>
      <point x="1216.0" y="77.0"/>
      <point x="1119.0" y="77.0" type="curve" smooth="yes"/>
      <point x="1105.0" y="77.0"/>
      <point x="1092.0" y="78.0"/>
      <point x="1079.0" y="86.0" type="curve"/>
      <point x="1100.0" y="14.0" type="line"/>
      <point x="1093.0" y="260.0" type="line"/>
      <point x="1060.0" y="260.0" type="line"/>
      <point x="1003.0" y="5.0" type="line"/>
      <point x="1030.0" y="-9.0"/>
      <point x="1068.0" y="-15.0"/>
      <point x="1118.0" y="-15.0" type="curve" smooth="yes"/>
      <point x="1277.0" y="-15.0"/>
      <point x="1402.0" y="106.0"/>
      <point x="1402.0" y="283.0" type="curve" smooth="yes"/>
      <point x="1402.0" y="452.0"/>
      <point x="1279.0" y="539.0"/>
      <point x="1279.0" y="665.0" type="curve" smooth="yes"/>
      <point x="1279.0" y="741.0"/>
      <point x="1314.0" y="813.0"/>
      <point x="1428.0" y="813.0" type="curve" smooth="yes"/>
      <point x="1441.0" y="813.0"/>
      <point x="1452.0" y="810.0"/>
      <point x="1461.0" y="804.0" type="curve"/>
      <point x="1450.0" y="859.0" type="line"/>
      <point x="1449.0" y="635.0" type="line"/>
      <point x="1484.0" y="635.0" type="line"/>
      <point x="1551.0" y="882.0" type="line"/>
      <point x="1528.0" y="896.0"/>
      <point x="1488.0" y="905.0"/>
    </contour>
    <contour>
      <point x="743.0" y="936.0"/>
      <point x="636.0" y="708.0"/>
      <point x="491.0" y="708.0" type="curve" smooth="yes"/>
      <point x="416.0" y="708.0" type="line"/>
      <point x="359.0" y="629.0" type="line"/>
      <point x="484.0" y="629.0" type="line" smooth="yes"/>
      <point x="739.0" y="629.0"/>
      <point x="867.0" y="904.0"/>
      <point x="867.0" y="1120.0" type="curve" smooth="yes"/>
      <point x="867.0" y="1253.0"/>
      <point x="803.0" y="1340.0"/>
      <point x="645.0" y="1340.0" type="curve" smooth="yes"/>
      <point x="576.0" y="1340.0" type="line"/>
      <point x="585.0" y="1261.0" type="line"/>
      <point x="623.0" y="1261.0" type="line" smooth="yes"/>
      <point x="718.0" y="1261.0"/>
      <point x="743.0" y="1221.0"/>
      <point x="743.0" y="1131.0" type="curve" smooth="yes"/>
    </contour>
  </outline>
</glyph>
<glyph name="six.lf" format="2">
  <advance width="1058"/>
  <outline>
    <contour>
      <point x="1135.0" y="1387.0" type="line"/>
      <point x="323.0" y="1144.0"/>
      <point x="125.0" y="795.0"/>
      <point x="125.0" y="397.0" type="curve" smooth="yes"/>
      <point x="125.0" y="113.0"/>
      <point x="273.0" y="-20.0"/>
      <point x="497.0" y="-20.0" type="curve" smooth="yes"/>
      <point x="754.0" y="-20.0"/>
      <point x="988.0" y="197.0"/>
      <point x="988.0" y="500.0" type="curve" smooth="yes"/>
      <point x="988.0" y="653.0"/>
      <point x="889.0" y="772.0"/>
      <point x="684.0" y="772.0" type="curve" smooth="yes"/>
      <point x="568.0" y="772.0"/>
      <point x="433.0" y="729.0"/>
      <point x="225.0" y="583.0" type="curve"/>
      <point x="266.0" y="557.0" type="line"/>
      <point x="364.0" y="628.0"/>
      <point x="498.0" y="665.0"/>
      <point x="606.0" y="665.0" type="curve" smooth="yes"/>
      <point x="775.0" y="665.0"/>
      <point x="840.0" y="577.0"/>
      <point x="840.0" y="457.0" type="curve" smooth="yes"/>
      <point x="840.0" y="205.52238805970148"/>
      <point x="685.0" y="51.0"/>
      <point x="501.0" y="51.0" type="curve" smooth="yes"/>
      <point x="353.0" y="51.0"/>
      <point x="263.0" y="144.04843304843303"/>
      <point x="263.0" y="406.0" type="curve" smooth="yes"/>
      <point x="263.0" y="765.0"/>
      <point x="461.0" y="1127.0"/>
      <point x="1156.0" y="1328.0" type="curve"/>
    </contour>
  </outline>
</glyph>
<glyph name="two.lf" format="2">
  <advance width="1031"/>
  <outline>
    <contour>
      <point x="281.0" y="936.0" type="line"/>
      <point x="346.0" y="1162.0"/>
      <point x="478.0" y="1231.0"/>
      <point x="626.0" y="1231.0" type="curve" smooth="yes"/>
      <point x="768.0" y="1231.0"/>
      <point x="848.0" y="1144.0"/>
      <point x="848.0" y="1000.0" type="curve" smooth="yes"/>
      <point x="848.0" y="877.0"/>
      <point x="778.0" y="740.0"/>
      <point x="497.0" y="480.0" type="curve" smooth="yes"/>
      <point x="4.0" y="25.0" type="line"/>
      <point x="-4.0" y="0.0" type="line"/>
      <point x="651.0" y="0.0" type="line"/>
      <point x="755.0" y="-19.0" type="line"/>
      <point x="770.0" y="-19.0" type="line"/>
      <point x="947.0" y="355.0" type="line"/>
      <point x="914.0" y="355.0" type="line"/>
      <point x="695.0" y="122.0" type="line"/>
      <point x="746.0" y="134.0" type="line"/>
      <point x="173.0" y="134.0" type="line"/>
      <point x="121.0" y="51.0" type="line"/>
      <point x="553.0" y="416.0" type="line" smooth="yes"/>
      <point x="911.0" y="719.0"/>
      <point x="1009.0" y="865.0"/>
      <point x="1009.0" y="1051.0" type="curve" smooth="yes"/>
      <point x="1009.0" y="1236.0"/>
      <point x="880.0" y="1360.0"/>
      <point x="689.0" y="1360.0" type="curve" smooth="yes"/>
      <point x="470.0" y="1360.0"/>
      <point x="296.0" y="1215.0"/>
      <point x="228.0" y="943.0" type="curve"/>
    </contour>
  </outline>
</glyph>
<glyph name="uni0306_acutecomb" format="2">
  <anchor x="130" y="852.0" name="_top"/>
  <outline>
    <contour>
      <point x="179.0" y="1189.0" type="line"/>
      <point x="234.0" y="1189.0" type="line"/>
      <point x="553.0" y="1462.0" type="line"/>
      <point x="553.0" y="1476.0" type="line"/>
      <point x="335.0" y="1476.0" type="line"/>
    </contour>
    <contour>
      <point x="196.0" y="1086.0" type="curve" smooth="yes"/>
      <point x="83.0" y="1086.0"/>
      <point x="48.0" y="1122.0"/>
      <point x="48.0" y="1206.0" type="curve"/>
      <point x="-3.0" y="1206.0" type="line"/>
      <point x="-22.0" y="1025.0"/>
      <point x="34.0" y="957.0"/>
      <point x="170.0" y="957.0" type="curve" smooth="yes"/>
      <point x="306.0" y="957.0"/>
      <point x="373.0" y="999.0"/>
      <point x="480.0" y="1206.0" type="curve"/>
      <point x="417.0" y="1206.0" type="line"/>
      <point x="365.0" y="1117.0"/>
      <point x="302.0" y="1086.0"/>
    </contour>
  </outline>
</glyph>
<glyph name="uni0306_tildecomb" format="2">
  <anchor x="130" y="852.0" name="_top"/>
  <outline>
    <contour>
      <point x="196.0" y="1086.0" type="curve" smooth="yes"/>
      <point x="83.0" y="1086.0"/>
      <point x="48.0" y="1122.0"/>
      <point x="48.0" y="1206.0" type="curve"/>
      <point x="-3.0" y="1206.0" type="line"/>
      <point x="-22.0" y="1025.0"/>
      <point x="34.0" y="957.0"/>
      <point x="170.0" y="957.0" type="curve" smooth="yes"/>
      <point x="306.0" y="957.0"/>
      <point x="373.0" y="999.0"/>
      <point x="480.0" y="1206.0" type="curve"/>
      <point x="417.0" y="1206.0" type="line"/>
      <point x="365.0" y="1117.0"/>
      <point x="302.0" y="1086.0"/>
    </contour>
    <contour>
      <point x="551.0" y="1476.0" type="curve"/>
      <point x="494.0" y="1476.0" type="line"/>
      <point x="463.0" y="1420.0"/>
      <point x="438.0" y="1402.0"/>
      <point x="405.0" y="1402.0" type="curve" smooth="yes"/>
      <point x="351.0" y="1402.0"/>
      <point x="263.0" y="1483.0"/>
      <point x="200.0" y="1483.0" type="curve" smooth="yes"/>
      <point x="123.0" y="1483.0"/>
      <point x="85.0" y="1422.0"/>
      <point x="9.0" y="1275.0" type="curve"/>
      <point x="66.0" y="1275.0" type="line"/>
      <point x="98.0" y="1331.0"/>
      <point x="122.0" y="1349.0"/>
      <point x="155.0" y="1349.0" type="curve" smooth="yes"/>
      <point x="209.0" y="1349.0"/>
      <point x="299.0" y="1269.0"/>
      <point x="361.0" y="1269.0" type="curve" smooth="yes"/>
      <point x="438.0" y="1269.0"/>
      <point x="476.0" y="1329.0"/>
    </contour>
  </outline>
</glyph>
<glyph name="uni030A.case" format="2">
  <anchor x="279" y="1340.0" name="_UCtop"/>
  <anchor x="393" y="1716" name="UCtop"/>
  <outline>
    <contour>
      <point x="379.0" y="1771.0" type="curve" smooth="yes"/>
      <point x="253.0" y="1771.0"/>
      <point x="176.0" y="1678.0"/>
      <point x="176.0" y="1570.0" type="curve" smooth="yes"/>
      <point x="176.0" y="1478.0"/>
      <point x="240.0" y="1421.0"/>
      <point x="334.0" y="1421.0" type="curve" smooth="yes"/>
      <point x="460.0" y="1421.0"/>
      <point x="537.0" y="1514.0"/>
      <point x="537.0" y="1622.0" type="curve" smooth="yes"/>
      <point x="537.0" y="1714.0"/>
      <point x="473.0" y="1771.0"/>
    </contour>
    <contour>
      <point x="341.0" y="1482.0" type="curve" smooth="yes"/>
      <point x="278.0" y="1482.0"/>
      <point x="242.0" y="1517.0"/>
      <point x="242.0" y="1581.0" type="curve" smooth="yes"/>
      <point x="242.0" y="1649.0"/>
      <point x="292.0" y="1710.0"/>
      <point x="372.0" y="1710.0" type="curve" smooth="yes"/>
      <point x="435.0" y="1710.0"/>
      <point x="471.0" y="1675.0"/>
      <point x="471.0" y="1611.0" type="curve" smooth="yes"/>
      <point x="471.0" y="1543.0"/>
      <point x="421.0" y="1482.0"/>
    </contour>
  </outline>
</glyph>
<glyph name="uni20A6.lf.1" format="2">
  <advance width="1216"/>
  <outline>
    <contour>
      <point x="1213.0" y="1265.0" type="line"/>
      <point x="1375.0" y="1303.0" type="line"/>
      <point x="1386.0" y="1340.0" type="line"/>
      <point x="998.0" y="1340.0" type="line"/>
      <point x="986.0" y="1303.0" type="line"/>
      <point x="1137.0" y="1265.0" type="line"/>
      <point x="799.0" y="157.0" type="line"/>
      <point x="850.0" y="184.0" type="line"/>
      <point x="695.0" y="1340.0" type="line"/>
      <point x="394.0" y="1340.0" type="line"/>
      <point x="384.0" y="1306.0" type="line"/>
      <point x="520.0" y="1248.0" type="line"/>
      <point x="162.0" y="75.0" type="line"/>
      <point x="0.0" y="37.0" type="line"/>
      <point x="-11.0" y="0.0" type="line"/>
      <point x="377.0" y="0.0" type="line"/>
      <point x="389.0" y="37.0" type="line"/>
      <point x="238.0" y="75.0" type="line"/>
      <point x="591.0" y="1230.0" type="line"/>
      <point x="569.0" y="1241.0" type="line"/>
      <point x="739.0" y="-19.0" type="line"/>
      <point x="821.0" y="-19.0" type="line"/>
    </contour>
    <contour>
      <point x="966.0" y="577.0" type="line"/>
      <point x="1162.0" y="577.0" type="line"/>
      <point x="1184.0" y="649.0" type="line"/>
      <point x="989.0" y="649.0" type="line"/>
    </contour>
    <contour>
      <point x="377.0" y="649.0" type="line"/>
      <point x="179.0" y="649.0" type="line"/>
      <point x="157.0" y="577.0" type="line"/>
      <point x="354.0" y="577.0" type="line"/>
    </contour>
    <contour>
      <point x="1048.0" y="837.0" type="line"/>
      <point x="1241.0" y="837.0" type="line"/>
      <point x="1263.0" y="909.0" type="line"/>
      <point x="1071.0" y="909.0" type="line"/>
    </contour>
    <contour>
      <point x="457.0" y="909.0" type="line"/>
      <point x="258.0" y="909.0" type="line"/>
      <point x="236.0" y="837.0" type="line"/>
      <point x="435.0" y="837.0" type="line"/>
    </contour>
  </outline>
</glyph>
<glyph name="uni20A6.lf" format="2">
  <advance width="1216"/>
  <guideline x="691.0" y="1340" angle="359.12830209393866" identifier="JeX5MbmB2h"/>
  <outline>
    <contour>
      <point x="1184.0" y="649.0" type="line"/>
      <point x="179.0" y="649.0" type="line"/>
      <point x="157.0" y="577.0" type="line"/>
      <point x="1162.0" y="577.0" type="line"/>
    </contour>
    <contour>
      <point x="1263.0" y="909.0" type="line"/>
      <point x="258.0" y="909.0" type="line"/>
      <point x="236.0" y="837.0" type="line"/>
      <point x="1241.0" y="837.0" type="line"/>
    </contour>
    <contour>
      <point x="1213.0" y="1265.0" type="line"/>
      <point x="1375.0" y="1303.0" type="line"/>
      <point x="1386.0" y="1340.0" type="line"/>
      <point x="998.0" y="1340.0" type="line"/>
      <point x="986.0" y="1303.0" type="line"/>
      <point x="1137.0" y="1265.0" type="line"/>
      <point x="799.0" y="157.0" type="line"/>
      <point x="850.0" y="184.0" type="line"/>
      <point x="695.0" y="1340.0" type="line"/>
      <point x="394.0" y="1340.0" type="line"/>
      <point x="384.0" y="1306.0" type="line"/>
      <point x="520.0" y="1248.0" type="line"/>
      <point x="162.0" y="75.0" type="line"/>
      <point x="0.0" y="37.0" type="line"/>
      <point x="-11.0" y="0.0" type="line"/>
      <point x="377.0" y="0.0" type="line"/>
      <point x="389.0" y="37.0" type="line"/>
      <point x="238.0" y="75.0" type="line"/>
      <point x="591.0" y="1230.0" type="line"/>
      <point x="569.0" y="1241.0" type="line"/>
      <point x="739.0" y="-19.0" type="line"/>
      <point x="821.0" y="-19.0" type="line"/>
    </contour>
  </outline>
</glyph>
<glyph name="uni20A9.lf.1" format="2">
  <advance width="1340"/>
  <outline>
    <contour>
      <point x="939.0" y="1182.0" type="line"/>
      <point x="899.0" y="1168.0" type="line"/>
      <point x="794.0" y="-20.0" type="line"/>
      <point x="874.0" y="-20.0" type="line"/>
      <point x="1428.0" y="1263.0" type="line"/>
      <point x="1526.0" y="1303.0" type="line"/>
      <point x="1537.0" y="1340.0" type="line"/>
      <point x="1259.0" y="1340.0" type="line"/>
      <point x="1247.0" y="1303.0" type="line"/>
      <point x="1342.0" y="1263.0" type="line"/>
      <point x="868.0" y="148.0" type="line"/>
      <point x="931.0" y="175.0" type="line"/>
      <point x="1036.0" y="1360.0" type="line"/>
      <point x="956.0" y="1360.0" type="line"/>
      <point x="339.0" y="225.0" type="line"/>
      <point x="379.0" y="225.0" type="line"/>
      <point x="559.0" y="1259.0" type="line"/>
      <point x="697.0" y="1303.0" type="line"/>
      <point x="708.0" y="1340.0" type="line"/>
      <point x="360.0" y="1340.0" type="line"/>
      <point x="349.0" y="1303.0" type="line"/>
      <point x="427.0" y="1256.0" type="line"/>
      <point x="208.0" y="-20.0" type="line"/>
      <point x="288.0" y="-20.0" type="line"/>
    </contour>
    <contour>
      <point x="1095.0" y="577.0" type="line"/>
      <point x="1278.0" y="577.0" type="line"/>
      <point x="1300.0" y="649.0" type="line"/>
      <point x="1125.0" y="649.0" type="line"/>
    </contour>
    <contour>
      <point x="395.0" y="649.0" type="line"/>
      <point x="172.0" y="649.0" type="line"/>
      <point x="150.0" y="577.0" type="line"/>
      <point x="386.0" y="577.0" type="line"/>
    </contour>
    <contour>
      <point x="1204.0" y="837.0" type="line"/>
      <point x="1358.0" y="837.0" type="line"/>
      <point x="1380.0" y="909.0" type="line"/>
      <point x="1235.0" y="909.0" type="line"/>
    </contour>
    <contour>
      <point x="425.0" y="909.0" type="line"/>
      <point x="251.0" y="909.0" type="line"/>
      <point x="229.0" y="837.0" type="line"/>
      <point x="417.0" y="837.0" type="line"/>
    </contour>
  </outline>
</glyph>
<glyph name="uni20B1.lf" format="2">
  <advance width="1221"/>
  <outline>
    <contour>
      <point x="1251.0" y="835.0" type="line"/>
      <point x="240.0" y="835.0" type="line"/>
      <point x="218.0" y="763.0" type="line"/>
      <point x="1229.0" y="763.0" type="line"/>
    </contour>
    <contour>
      <point x="1331.0" y="1095.0" type="line"/>
      <point x="320.0" y="1095.0" type="line"/>
      <point x="298.0" y="1023.0" type="line"/>
      <point x="1309.0" y="1023.0" type="line"/>
    </contour>
    <contour>
      <point x="549.0" y="1255.0" type="line"/>
      <point x="191.0" y="85.0" type="line"/>
      <point x="22.0" y="37.0" type="line"/>
      <point x="11.0" y="0.0" type="line"/>
      <point x="463.0" y="0.0" type="line"/>
      <point x="474.0" y="37.0" type="line"/>
      <point x="336.0" y="85.0" type="line"/>
      <point x="720.0" y="1340.0" type="line"/>
      <point x="420.0" y="1340.0" type="line"/>
      <point x="409.0" y="1303.0" type="line"/>
    </contour>
    <contour>
      <point x="990.0" y="789.0"/>
      <point x="856.0" y="603.0"/>
      <point x="632.0" y="603.0" type="curve" smooth="yes"/>
      <point x="419.0" y="603.0" type="line"/>
      <point x="403.0" y="522.0" type="line"/>
      <point x="622.0" y="522.0" type="line" smooth="yes"/>
      <point x="972.0" y="522.0"/>
      <point x="1128.0" y="759.0"/>
      <point x="1128.0" y="1065.0" type="curve" smooth="yes"/>
      <point x="1128.0" y="1217.0"/>
      <point x="1052.0" y="1340.0"/>
      <point x="814.0" y="1340.0" type="curve" smooth="yes"/>
      <point x="654.0" y="1340.0" type="line"/>
      <point x="617.0" y="1259.0" type="line"/>
      <point x="789.0" y="1259.0" type="line" smooth="yes"/>
      <point x="924.0" y="1259.0"/>
      <point x="990.0" y="1210.0"/>
      <point x="990.0" y="1077.0" type="curve" smooth="yes"/>
    </contour>
  </outline>
</glyph>
<glyph name="uni20B2.lf" format="2">
  <advance width="1128"/>
  <outline>
    <contour>
      <point x="374.0" y="-195.0" type="line"/>
      <point x="453.0" y="-195.0" type="line"/>
      <point x="981.0" y="1535.0" type="line"/>
      <point x="903.0" y="1535.0" type="line"/>
    </contour>
    <contour>
      <point x="318.0" y="454.0" type="curve" smooth="yes"/>
      <point x="318.0" y="883.0"/>
      <point x="512.0" y="1286.0"/>
      <point x="826.0" y="1286.0" type="curve" smooth="yes"/>
      <point x="1003.0" y="1286.0"/>
      <point x="971.0" y="1116.0"/>
      <point x="1080.0" y="1116.0" type="curve" smooth="yes"/>
      <point x="1127.0" y="1116.0"/>
      <point x="1165.0" y="1149.0"/>
      <point x="1165.0" y="1198.0" type="curve" smooth="yes"/>
      <point x="1165.0" y="1268.0"/>
      <point x="1085.0" y="1360.0"/>
      <point x="873.0" y="1360.0" type="curve" smooth="yes"/>
      <point x="422.0" y="1360.0"/>
      <point x="167.0" y="868.0"/>
      <point x="167.0" y="440.0" type="curve" smooth="yes"/>
      <point x="167.0" y="156.0"/>
      <point x="316.0" y="-20.0"/>
      <point x="534.0" y="-20.0" type="curve" smooth="yes"/>
      <point x="651.0" y="-20.0"/>
      <point x="753.0" y="3.0"/>
      <point x="861.0" y="66.0" type="curve"/>
      <point x="861.0" y="66.0" type="line"/>
      <point x="860.0" y="125.0" type="line"/>
      <point x="977.0" y="514.0" type="line"/>
      <point x="1109.0" y="562.0" type="line"/>
      <point x="1120.0" y="599.0" type="line"/>
      <point x="744.0" y="599.0" type="line"/>
      <point x="732.0" y="562.0" type="line"/>
      <point x="833.0" y="514.0" type="line"/>
      <point x="689.0" y="43.0" type="line"/>
      <point x="737.0" y="105.0" type="line"/>
      <point x="669.0" y="69.0"/>
      <point x="621.0" y="62.0"/>
      <point x="557.0" y="62.0" type="curve" smooth="yes"/>
      <point x="399.0" y="62.0"/>
      <point x="318.0" y="200.0"/>
    </contour>
  </outline>
</glyph>
<glyph name="uni20BA.lf" format="2">
  <advance width="1108"/>
  <outline>
    <contour>
      <point x="833.0" y="-59.0" type="line"/>
      <point x="1032.0" y="366.0" type="line"/>
      <point x="1003.0" y="379.0" type="line"/>
      <point x="721.0" y="65.0" type="line"/>
      <point x="862.0" y="81.0" type="line"/>
      <point x="243.0" y="81.0" type="line"/>
      <point x="216.0" y="0.0" type="line"/>
      <point x="730.0" y="0.0" type="line"/>
      <point x="813.0" y="-59.0" type="line"/>
    </contour>
    <contour>
      <point x="696.0" y="1255.0" type="line"/>
      <point x="865.0" y="1303.0" type="line"/>
      <point x="876.0" y="1340.0" type="line"/>
      <point x="424.0" y="1340.0" type="line"/>
      <point x="413.0" y="1303.0" type="line"/>
      <point x="551.0" y="1255.0" type="line"/>
      <point x="193.0" y="85.0" type="line"/>
      <point x="24.0" y="37.0" type="line"/>
      <point x="13.0" y="0.0" type="line"/>
      <point x="312.0" y="0.0" type="line"/>
    </contour>
    <contour>
      <point x="424.0" y="475.0" type="line"/>
      <point x="839.0" y="685.0" type="line"/>
      <point x="868.0" y="778.0" type="line"/>
      <point x="451.0" y="567.0" type="line"/>
      <point x="368.0" y="541.0" type="line"/>
      <point x="114.0" y="413.0" type="line"/>
      <point x="85.0" y="320.0" type="line"/>
      <point x="339.0" y="448.0" type="line"/>
    </contour>
    <contour>
      <point x="509.0" y="765.0" type="line"/>
      <point x="928.0" y="977.0" type="line"/>
      <point x="957.0" y="1070.0" type="line"/>
      <point x="536.0" y="857.0" type="line"/>
      <point x="458.0" y="834.0" type="line"/>
      <point x="203.0" y="705.0" type="line"/>
      <point x="174.0" y="612.0" type="line"/>
      <point x="430.0" y="741.0" type="line"/>
    </contour>
  </outline>
</glyph>
<glyph name="uni20BD.lf" format="2">
  <advance width="1100"/>
  <outline>
    <contour>
      <point x="952.0" y="589.0" type="line"/>
      <point x="164.0" y="589.0" type="line"/>
      <point x="142.0" y="517.0" type="line"/>
      <point x="930.0" y="517.0" type="line"/>
    </contour>
    <contour>
      <point x="548.0" y="1255.0" type="line"/>
      <point x="190.0" y="85.0" type="line"/>
      <point x="21.0" y="37.0" type="line"/>
      <point x="10.0" y="0.0" type="line"/>
      <point x="462.0" y="0.0" type="line"/>
      <point x="473.0" y="37.0" type="line"/>
      <point x="335.0" y="85.0" type="line"/>
      <point x="719.0" y="1340.0" type="line"/>
      <point x="419.0" y="1340.0" type="line"/>
      <point x="408.0" y="1303.0" type="line"/>
    </contour>
    <contour>
      <point x="1064.0" y="955.0"/>
      <point x="973.0" y="849.0"/>
      <point x="826.0" y="849.0" type="curve" smooth="yes"/>
      <point x="245.0" y="849.0" type="line"/>
      <point x="222.0" y="777.0" type="line"/>
      <point x="804.0" y="777.0" type="line" smooth="yes"/>
      <point x="1072.0" y="777.0"/>
      <point x="1219.0" y="909.0"/>
      <point x="1219.0" y="1113.0" type="curve" smooth="yes"/>
      <point x="1219.0" y="1248.0"/>
      <point x="1140.0" y="1340.0"/>
      <point x="890.0" y="1340.0" type="curve" smooth="yes"/>
      <point x="625.0" y="1340.0" type="line"/>
      <point x="594.0" y="1259.0" type="line"/>
      <point x="868.0" y="1259.0" type="line" smooth="yes"/>
      <point x="1009.0" y="1259.0"/>
      <point x="1064.0" y="1210.0"/>
      <point x="1064.0" y="1111.0" type="curve" smooth="yes"/>
    </contour>
  </outline>
</glyph>
